{"glyphs":{"0":{"ha":667,"x_min":25,"x_max":642,"o":"m 25 458 q 26 574 25 528 q 35 681 28 621 q 54 780 42 740 q 89 861 67 819 q 144 927 111 903 q 224 967 176 951 q 333 983 272 983 q 576 877 510 983 q 642 506 642 771 q 640 390 642 436 q 632 283 639 343 q 613 184 625 224 q 578 103 600 144 q 523 37 556 61 q 442 -3 490 13 q 333 -19 394 -19 q 91 87 157 -19 q 25 458 25 193 m 225 522 l 225 415 q 247 171 225 231 q 333 111 269 111 q 420 180 399 111 q 442 442 442 249 l 442 549 q 419 793 442 733 q 333 853 397 853 q 247 784 268 853 q 225 522 225 715 z "},"1":{"ha":667,"x_min":57,"x_max":453,"o":"m 453 0 l 253 0 l 253 694 l 57 694 l 57 825 l 75 825 q 306 983 275 825 l 453 983 l 453 0 z "},"2":{"ha":667,"x_min":25,"x_max":631,"o":"m 631 156 l 631 0 l 25 0 q 77 227 25 128 q 242 431 129 326 l 322 506 q 406 610 386 565 q 425 731 425 654 q 328 853 425 853 q 255 824 281 853 q 223 759 229 796 q 217 661 217 722 l 25 661 l 25 699 q 331 983 25 983 q 551 915 478 983 q 625 715 625 846 q 590 550 625 621 q 472 403 556 479 l 361 300 q 260 156 278 224 l 631 156 z "},"3":{"ha":667,"x_min":28,"x_max":639,"o":"m 28 288 l 219 288 q 244 153 221 194 q 329 111 267 111 q 417 152 394 111 q 439 269 439 193 q 412 392 439 347 q 310 438 385 438 l 243 438 l 243 568 l 308 568 q 394 613 367 568 q 422 724 422 657 q 399 823 422 793 q 326 853 376 853 q 246 813 267 853 q 225 693 225 772 l 42 693 q 331 983 42 983 q 614 731 614 983 q 574 586 614 643 q 464 514 535 529 l 464 511 q 639 279 639 482 q 625 176 639 224 q 578 81 611 128 q 478 8 546 35 q 313 -19 410 -19 q 100 60 172 -19 q 28 283 28 139 l 28 288 z "},"4":{"ha":667,"x_min":19,"x_max":647,"o":"m 19 204 l 19 368 l 346 983 l 553 983 l 553 360 l 647 360 l 647 204 l 553 204 l 553 0 l 369 0 l 369 204 l 19 204 m 369 360 l 369 733 l 367 733 l 175 360 l 369 360 z "},"5":{"ha":667,"x_min":25,"x_max":631,"o":"m 590 964 l 590 808 l 228 808 l 207 585 l 210 585 q 390 658 264 658 q 507 632 458 658 q 581 559 556 606 q 619 460 607 513 q 631 344 631 407 q 562 74 631 167 q 315 -19 493 -19 q 189 -1 243 -19 q 104 44 135 17 q 55 110 74 72 q 31 183 36 149 q 25 254 25 217 l 25 281 l 217 281 q 314 119 217 119 q 431 311 431 119 q 406 476 431 432 q 315 519 382 519 q 221 429 232 519 l 42 429 l 78 964 l 590 964 z "},"6":{"ha":667,"x_min":19,"x_max":647,"o":"m 229 306 q 251 160 229 210 q 339 111 274 111 q 426 160 404 111 q 447 306 447 208 q 422 449 447 406 q 339 492 397 492 q 254 449 279 492 q 229 306 229 406 m 624 733 l 432 733 q 342 853 432 853 q 278 835 303 853 q 240 781 253 817 q 224 703 228 744 q 219 603 219 663 l 219 554 l 222 554 q 407 639 278 639 q 589 556 531 639 q 647 332 647 474 q 329 -19 647 -19 q 192 6 250 -19 q 101 72 133 32 q 49 176 68 113 q 25 299 31 239 q 19 440 19 360 q 20 533 19 499 q 24 619 21 567 q 33 705 26 672 q 51 781 39 738 q 78 849 63 824 q 119 903 94 875 q 177 947 144 932 q 253 973 210 963 q 350 983 297 983 q 544 924 468 983 q 624 733 621 865 z "},"7":{"ha":667,"x_min":31,"x_max":636,"o":"m 31 964 l 636 964 l 636 811 q 447 434 519 647 q 347 0 374 221 l 138 0 q 444 792 192 446 l 31 792 l 31 964 z "},"8":{"ha":667,"x_min":19,"x_max":647,"o":"m 333 450 q 276 450 333 450 q 219 281 219 450 q 333 111 219 111 q 447 281 447 111 q 333 450 447 450 m 236 718 q 333 581 236 581 q 431 718 431 581 q 333 853 431 853 q 236 718 236 853 m 19 278 q 63 439 19 374 q 186 521 106 504 l 186 524 q 78 597 113 542 q 44 713 44 651 q 333 983 44 983 q 622 713 622 983 q 588 597 622 651 q 481 524 553 542 l 481 521 q 604 439 561 504 q 647 278 647 374 q 641 203 647 239 q 615 126 635 168 q 562 53 594 83 q 470 1 529 22 q 333 -19 411 -19 q 197 1 256 -19 q 105 53 138 22 q 52 126 72 83 q 26 203 32 168 q 19 278 19 239 z "},"9":{"ha":667,"x_min":19,"x_max":647,"o":"m 219 658 q 244 515 219 558 q 328 472 269 472 q 413 515 388 472 q 438 658 438 558 q 415 803 438 754 q 328 853 393 853 q 241 804 263 853 q 219 658 219 756 m 43 229 l 235 229 q 325 111 235 111 q 389 129 364 111 q 426 183 414 147 q 443 260 439 219 q 447 361 447 301 l 447 408 l 444 408 q 260 325 389 325 q 78 408 136 325 q 19 632 19 490 q 338 983 19 983 q 474 958 417 983 q 565 892 532 932 q 617 788 597 851 q 642 665 636 725 q 647 524 647 604 q 647 440 647 472 q 644 360 646 408 q 637 283 642 313 q 624 213 632 253 q 603 147 617 172 q 573 92 590 121 q 531 44 556 63 q 475 10 506 26 q 404 -12 444 -6 q 317 -19 364 -19 q 122 39 197 -19 q 43 229 46 97 z "},"\u0000":{"ha":0,"x_min":0,"x_max":0,"o":""},"\r":{"ha":1389,"x_min":0,"x_max":0,"o":""}," ":{"ha":333,"x_min":0,"x_max":0,"o":""},"!":{"ha":411,"x_min":110,"x_max":301,"o":"m 110 183 l 301 183 l 301 0 l 110 0 l 110 183 m 275 276 l 136 276 l 110 669 l 110 992 l 301 992 l 301 669 l 275 276 z "},"\"":{"ha":643,"x_min":100,"x_max":543,"o":"m 100 546 l 100 992 l 272 992 l 272 546 l 100 546 m 371 546 l 371 992 l 543 992 l 543 546 l 371 546 z "},"#":{"ha":667,"x_min":0,"x_max":667,"o":"m 276 567 l 256 397 l 390 397 l 413 567 l 276 567 m 0 242 l 0 397 l 121 397 l 143 567 l 42 567 l 42 722 l 161 722 l 192 964 l 325 964 l 296 722 l 431 722 l 461 964 l 596 964 l 565 722 l 667 722 l 667 567 l 547 567 l 525 397 l 626 397 l 626 242 l 507 242 l 476 0 l 342 0 l 372 242 l 236 242 l 207 0 l 72 0 l 103 242 l 0 242 z "},"$":{"ha":667,"x_min":13,"x_max":654,"o":"m 285 -140 l 285 -19 q 146 12 201 -12 q 63 76 90 36 q 24 161 35 117 q 13 265 13 206 l 13 294 l 204 294 q 219 182 204 224 q 285 128 235 140 l 285 408 l 215 433 q 25 700 25 501 q 92 898 25 826 q 285 983 160 969 l 285 1079 l 374 1079 l 374 983 q 631 721 631 961 l 631 701 l 439 701 q 374 836 436 817 l 374 574 l 483 529 q 613 439 571 492 q 654 278 654 386 q 585 60 654 131 q 374 -19 515 -10 l 374 -140 l 285 -140 m 285 614 l 285 836 q 217 731 217 817 q 285 614 217 653 m 374 374 l 374 128 q 454 239 454 146 q 435 321 454 290 q 374 374 415 351 z "},"%":{"ha":1081,"x_min":38,"x_max":1043,"o":"m 194 -43 l 758 1007 l 882 1007 l 318 -43 l 194 -43 m 185 724 q 196 595 185 632 q 246 558 207 558 q 296 595 285 558 q 307 724 307 632 q 296 843 307 808 q 246 878 285 878 q 196 843 207 878 q 185 724 185 808 m 80 514 q 59 544 80 514 q 38 718 38 575 q 80 922 38 861 q 246 983 122 983 q 412 922 369 983 q 454 718 454 861 q 412 514 454 575 q 246 453 369 453 q 80 514 122 453 m 669 42 q 648 72 669 42 q 626 246 626 103 q 669 450 626 389 q 835 511 711 511 q 1001 450 958 511 q 1043 246 1043 389 q 1001 42 1043 103 q 835 -19 958 -19 q 669 42 711 -19 m 774 251 q 785 123 774 160 q 835 86 796 86 q 885 123 874 86 q 896 251 896 160 q 885 371 896 336 q 835 406 874 406 q 785 371 796 406 q 774 251 774 336 z "},"&":{"ha":824,"x_min":17,"x_max":828,"o":"m 443 528 l 592 326 q 626 476 626 399 l 799 476 q 697 183 799 328 l 828 0 l 615 0 l 560 76 q 321 -19 479 -19 q 169 8 232 -19 q 74 83 106 36 q 30 174 43 129 q 17 267 17 219 q 217 553 17 426 l 182 604 q 128 700 142 663 q 115 783 115 738 q 185 935 115 878 q 368 992 256 992 q 553 934 490 992 q 615 785 615 876 q 574 651 615 711 q 443 528 533 592 m 476 199 l 310 435 q 231 352 254 390 q 208 267 208 314 q 246 176 208 217 q 347 136 283 136 q 476 199 426 136 m 279 789 q 329 681 279 747 l 353 647 l 389 678 q 451 786 451 731 q 427 848 451 826 q 364 869 403 869 q 303 848 326 869 q 279 789 279 826 z "},"'":{"ha":361,"x_min":94,"x_max":267,"o":"m 94 546 l 94 992 l 267 992 l 267 546 l 94 546 z "},"(":{"ha":411,"x_min":69,"x_max":411,"o":"m 264 992 l 411 992 q 289 690 325 833 q 253 368 253 546 q 289 47 253 190 q 411 -256 325 -97 l 264 -256 q 69 368 69 53 q 264 992 69 683 z "},")":{"ha":411,"x_min":0,"x_max":342,"o":"m 0 992 l 147 992 q 342 368 342 683 q 147 -256 342 53 l 0 -256 q 122 47 86 -97 q 158 368 158 190 q 122 690 158 546 q 0 992 86 833 z "},"*":{"ha":542,"x_min":10,"x_max":532,"o":"m 214 992 l 328 992 l 328 814 l 497 869 l 532 761 l 363 706 l 468 561 l 375 494 l 271 639 l 167 494 l 74 561 l 179 706 l 10 761 l 44 869 l 214 814 l 214 992 z "},"+":{"ha":833,"x_min":65,"x_max":768,"o":"m 331 0 l 331 265 l 65 265 l 65 438 l 331 438 l 331 703 l 503 703 l 503 438 l 768 438 l 768 265 l 503 265 l 503 0 l 331 0 z "},",":{"ha":333,"x_min":75,"x_max":258,"o":"m 75 217 l 258 217 l 258 36 q 219 -152 258 -86 q 75 -229 179 -218 l 75 -132 q 128 -94 110 -125 q 147 -22 147 -62 l 147 0 l 75 0 l 75 217 z "},"-":{"ha":514,"x_min":61,"x_max":453,"o":"m 61 483 l 453 483 l 453 319 l 61 319 l 61 483 z "},".":{"ha":333,"x_min":75,"x_max":258,"o":"m 75 217 l 258 217 l 258 0 l 75 0 l 75 217 z "},"/":{"ha":461,"x_min":-4,"x_max":465,"o":"m -4 -19 l 310 1011 l 465 1011 l 151 -19 l -4 -19 z "},":":{"ha":333,"x_min":75,"x_max":258,"o":"m 75 507 l 75 724 l 258 724 l 258 507 l 75 507 m 75 0 l 75 217 l 258 217 l 258 0 l 75 0 z "},";":{"ha":333,"x_min":75,"x_max":258,"o":"m 75 724 l 258 724 l 258 507 l 75 507 l 75 724 m 75 217 l 258 217 l 258 36 q 219 -152 258 -86 q 75 -229 179 -218 l 75 -132 q 128 -94 110 -125 q 147 -22 147 -62 l 147 0 l 75 0 l 75 217 z "},"<":{"ha":833,"x_min":65,"x_max":768,"o":"m 65 278 l 65 425 l 768 714 l 768 542 l 299 351 l 768 161 l 768 -11 l 65 278 z "},"=":{"ha":833,"x_min":65,"x_max":768,"o":"m 65 114 l 65 286 l 768 286 l 768 114 l 65 114 m 65 417 l 65 589 l 768 589 l 768 417 l 65 417 z "},">":{"ha":833,"x_min":65,"x_max":768,"o":"m 65 -11 l 65 161 l 535 351 l 65 542 l 65 714 l 768 425 l 768 278 l 65 -11 z "},"?":{"ha":668,"x_min":50,"x_max":618,"o":"m 225 183 l 417 183 l 417 0 l 225 0 l 225 183 m 233 685 l 50 685 l 50 717 q 121 924 50 846 q 325 1003 192 1003 q 543 931 468 1003 q 618 735 618 860 q 531 518 618 618 l 475 456 q 422 380 436 413 q 407 296 407 347 l 407 275 l 235 275 l 235 329 q 254 445 235 397 q 321 547 274 493 l 374 607 q 426 754 426 665 q 402 840 426 808 q 332 872 378 872 q 233 719 233 872 l 233 685 z "},"@":{"ha":1111,"x_min":40,"x_max":1071,"o":"m 725 678 l 743 751 l 865 751 l 785 404 q 776 347 776 364 q 804 319 776 319 q 900 390 851 319 q 949 561 949 460 q 838 789 949 697 q 579 881 728 881 q 308 764 419 881 q 196 494 196 647 q 313 224 196 336 q 589 111 429 111 q 890 200 742 111 l 1014 200 q 556 -19 858 -19 q 191 131 342 -19 q 40 496 40 282 q 191 860 40 710 q 556 1011 342 1011 q 920 894 769 1011 q 1071 590 1071 776 q 1043 437 1071 507 q 974 323 1015 367 q 884 249 933 279 q 793 206 835 218 q 722 193 751 193 q 632 267 639 193 l 629 267 q 463 193 558 193 q 322 258 383 193 q 260 429 260 324 q 343 667 260 564 q 557 771 426 771 q 725 678 668 771 m 415 453 q 443 373 415 406 q 514 340 471 340 q 628 396 582 340 q 675 518 675 451 q 644 593 675 563 q 571 624 614 624 q 461 569 507 624 q 415 453 415 514 z "},"A":{"ha":772,"x_min":0,"x_max":772,"o":"m 385 819 l 289 374 l 483 374 l 388 819 l 385 819 m 0 0 l 263 992 l 510 992 l 772 0 l 564 0 l 518 210 l 254 210 l 208 0 l 0 0 z "},"B":{"ha":772,"x_min":69,"x_max":717,"o":"m 269 446 l 269 147 l 347 147 q 467 181 425 147 q 508 297 508 215 q 356 446 508 446 l 269 446 m 269 844 l 269 585 l 326 585 q 449 615 411 585 q 486 715 486 644 q 452 815 486 785 q 342 844 418 844 l 269 844 m 69 0 l 69 992 l 404 992 q 686 740 686 992 q 648 601 686 658 q 536 524 610 544 l 536 521 q 669 449 621 510 q 717 290 717 389 q 644 81 717 161 q 407 0 571 0 l 69 0 z "},"C":{"ha":746,"x_min":49,"x_max":701,"o":"m 693 657 l 493 657 q 467 816 493 768 q 374 864 440 864 q 274 781 300 864 q 249 482 249 699 q 263 256 249 335 q 304 153 278 178 q 376 128 331 128 q 469 179 438 128 q 501 379 501 231 l 701 379 q 688 224 701 290 q 642 100 675 158 q 545 11 610 42 q 386 -19 481 -19 q 236 6 299 -19 q 138 74 174 32 q 81 185 101 115 q 55 325 61 256 q 49 496 49 394 q 55 667 49 597 q 81 806 61 736 q 138 918 101 876 q 236 985 174 960 q 386 1011 299 1011 q 528 987 468 1011 q 618 929 588 963 q 667 843 649 896 q 689 750 685 790 q 693 657 693 710 z "},"D":{"ha":797,"x_min":79,"x_max":735,"o":"m 279 844 l 279 147 l 368 147 q 502 222 469 147 q 535 504 535 296 q 529 653 535 597 q 506 757 524 710 q 454 824 489 804 q 364 844 419 844 l 279 844 m 79 0 l 79 992 l 407 992 q 574 959 508 992 q 675 859 640 926 q 722 710 710 792 q 735 510 735 629 q 661 119 735 238 q 394 0 588 0 l 79 0 z "},"E":{"ha":668,"x_min":69,"x_max":638,"o":"m 69 992 l 624 992 l 624 828 l 269 828 l 269 594 l 603 594 l 603 431 l 269 431 l 269 164 l 638 164 l 638 0 l 69 0 l 69 992 z "},"F":{"ha":643,"x_min":69,"x_max":624,"o":"m 69 0 l 69 992 l 624 992 l 624 828 l 269 828 l 269 594 l 603 594 l 603 431 l 269 431 l 269 0 l 69 0 z "},"G":{"ha":772,"x_min":60,"x_max":713,"o":"m 701 697 l 510 697 q 481 813 510 761 q 396 864 453 864 q 292 783 324 864 q 260 517 260 703 q 288 223 260 318 q 397 128 317 128 q 481 170 440 128 q 521 286 521 213 l 521 388 l 389 388 l 389 535 l 713 535 l 713 0 l 565 0 l 565 92 l 563 92 q 354 -19 493 -19 q 205 13 264 -19 q 115 117 146 46 q 72 278 83 188 q 60 507 60 369 q 134 890 60 768 q 393 1011 208 1011 q 627 932 553 1011 q 701 697 701 853 z "},"H":{"ha":772,"x_min":69,"x_max":703,"o":"m 69 0 l 69 992 l 269 992 l 269 613 l 503 613 l 503 992 l 703 992 l 703 0 l 503 0 l 503 440 l 269 440 l 269 0 l 69 0 z "},"I":{"ha":358,"x_min":79,"x_max":279,"o":"m 279 0 l 79 0 l 79 992 l 279 992 l 279 0 z "},"J":{"ha":643,"x_min":21,"x_max":582,"o":"m 382 992 l 582 992 l 582 278 q 509 51 582 121 q 283 -19 436 -19 q 79 59 138 -19 q 21 271 21 138 l 21 314 l 204 314 l 204 283 q 223 164 204 200 q 293 128 242 128 q 363 164 344 128 q 382 283 382 200 l 382 992 z "},"K":{"ha":746,"x_min":69,"x_max":772,"o":"m 69 992 l 269 992 l 269 594 l 272 594 l 525 992 l 742 992 l 472 567 l 772 0 l 547 0 l 343 407 l 269 294 l 269 0 l 69 0 l 69 992 z "},"L":{"ha":643,"x_min":69,"x_max":624,"o":"m 624 0 l 69 0 l 69 992 l 269 992 l 269 164 l 624 164 l 624 0 z "},"M":{"ha":1028,"x_min":74,"x_max":954,"o":"m 74 0 l 74 992 l 371 992 l 513 292 l 515 292 l 658 992 l 954 992 l 954 0 l 771 0 l 771 792 l 768 792 l 592 0 l 436 0 l 260 792 l 257 792 l 257 0 l 74 0 z "},"N":{"ha":797,"x_min":69,"x_max":728,"o":"m 69 992 l 300 992 l 542 313 l 544 313 l 544 992 l 728 992 l 728 0 l 500 0 l 256 694 l 253 694 l 253 0 l 69 0 l 69 992 z "},"O":{"ha":772,"x_min":49,"x_max":724,"o":"m 55 325 q 52 360 55 325 q 49 496 49 394 q 55 667 49 597 q 81 806 61 736 q 138 918 101 876 q 236 985 174 960 q 386 1011 299 1011 q 536 985 474 1011 q 635 918 599 960 q 691 806 671 876 q 717 667 711 736 q 724 496 724 597 q 717 325 724 394 q 691 185 711 256 q 635 74 671 115 q 536 6 599 32 q 386 -19 474 -19 q 236 6 299 -19 q 138 74 174 32 q 81 185 101 115 q 55 325 61 256 m 249 496 q 275 206 249 285 q 386 128 301 128 q 497 206 471 128 q 524 496 524 285 q 497 785 524 706 q 386 864 471 864 q 275 785 301 864 q 249 496 249 706 z "},"P":{"ha":721,"x_min":69,"x_max":692,"o":"m 269 844 l 269 543 l 358 543 q 456 581 419 543 q 492 692 492 618 q 353 844 492 844 l 269 844 m 69 0 l 69 992 l 419 992 q 626 906 561 992 q 692 694 692 821 q 608 470 692 544 q 376 396 524 396 l 269 396 l 269 0 l 69 0 z "},"Q":{"ha":772,"x_min":49,"x_max":754,"o":"m 249 496 q 275 206 249 285 q 386 128 301 128 q 497 206 471 128 q 524 496 524 285 q 497 785 524 706 q 386 864 471 864 q 275 785 301 864 q 249 496 249 706 m 754 -15 l 636 -122 l 518 0 q 457 -15 486 -11 q 386 -19 425 -19 q 236 6 299 -19 q 138 74 174 32 q 81 185 101 115 q 55 325 61 256 q 49 496 49 394 q 55 667 49 597 q 81 806 61 736 q 138 918 101 876 q 236 985 174 960 q 386 1011 299 1011 q 536 985 474 1011 q 635 918 599 960 q 691 806 671 876 q 717 667 711 736 q 724 496 724 597 q 708 255 724 351 q 647 93 693 158 l 754 -15 z "},"R":{"ha":772,"x_min":69,"x_max":742,"o":"m 69 0 l 69 992 l 439 992 q 634 927 565 992 q 703 736 703 863 q 538 492 703 526 l 538 489 q 665 415 635 476 q 697 186 694 353 q 707 62 699 100 q 742 8 715 24 l 742 0 l 525 0 q 499 135 504 28 l 494 294 q 376 419 490 419 l 269 419 l 269 0 l 69 0 m 269 844 l 269 558 l 353 558 q 503 707 503 558 q 364 844 503 844 l 269 844 z "},"S":{"ha":721,"x_min":31,"x_max":690,"o":"m 31 310 l 231 310 l 231 281 q 259 166 231 204 q 363 128 288 128 q 447 160 413 128 q 482 250 482 192 q 407 376 482 346 l 258 436 q 95 546 146 481 q 44 719 44 611 q 125 937 44 863 q 351 1011 206 1011 q 576 946 493 1011 q 658 744 658 881 l 658 717 l 467 717 q 358 864 467 864 q 244 749 244 864 q 265 670 244 700 q 347 614 286 640 l 501 547 q 650 440 610 499 q 690 285 690 381 q 346 -19 690 -19 q 106 54 181 -19 q 31 269 31 128 l 31 310 z "},"T":{"ha":667,"x_min":17,"x_max":650,"o":"m 17 992 l 650 992 l 650 828 l 433 828 l 433 0 l 233 0 l 233 828 l 17 828 l 17 992 z "},"U":{"ha":747,"x_min":57,"x_max":690,"o":"m 57 992 l 257 992 l 257 300 q 282 173 257 218 q 374 128 307 128 q 465 173 440 128 q 490 300 490 218 l 490 992 l 690 992 l 690 300 q 665 145 690 210 q 592 46 639 81 q 492 -4 546 11 q 374 -19 439 -19 q 255 -6 307 -19 q 156 40 203 7 q 83 139 108 74 q 57 300 57 204 l 57 992 z "},"V":{"ha":721,"x_min":4,"x_max":717,"o":"m 4 992 l 218 992 l 358 258 l 363 258 l 510 992 l 717 992 l 489 0 l 232 0 l 4 992 z "},"W":{"ha":1056,"x_min":11,"x_max":1044,"o":"m 192 0 l 11 992 l 203 992 l 313 258 l 315 258 l 432 992 l 624 992 l 740 258 l 743 258 l 853 992 l 1044 992 l 864 0 l 640 0 l 529 719 l 526 719 l 415 0 l 192 0 z "},"X":{"ha":746,"x_min":8,"x_max":738,"o":"m 256 501 l 28 992 l 249 992 l 376 671 l 503 992 l 721 992 l 490 501 l 738 0 l 513 0 l 369 336 l 228 0 l 8 0 l 256 501 z "},"Y":{"ha":722,"x_min":4,"x_max":718,"o":"m 4 992 l 229 992 l 360 608 l 363 608 l 501 992 l 718 992 l 461 390 l 461 0 l 261 0 l 261 390 l 4 992 z "},"Z":{"ha":668,"x_min":33,"x_max":635,"o":"m 33 0 l 33 146 l 399 828 l 58 828 l 58 992 l 629 992 l 629 840 l 258 164 l 635 164 l 635 0 l 33 0 z "},"[":{"ha":438,"x_min":111,"x_max":429,"o":"m 111 -256 l 111 992 l 429 992 l 429 853 l 283 853 l 283 -117 l 429 -117 l 429 -256 l 111 -256 z "},"\\":{"ha":461,"x_min":-4,"x_max":465,"o":"m 310 -19 l -4 1011 l 151 1011 l 465 -19 l 310 -19 z "},"]":{"ha":438,"x_min":8,"x_max":326,"o":"m 8 -256 l 8 -117 l 154 -117 l 154 853 l 8 853 l 8 992 l 326 992 l 326 -256 l 8 -256 z "},"^":{"ha":833,"x_min":78,"x_max":756,"o":"m 250 429 l 78 429 l 339 964 l 494 964 l 756 429 l 583 429 l 417 772 l 250 429 z "},"_":{"ha":694,"x_min":0,"x_max":694,"o":"m 694 -174 l 0 -174 l 0 -104 l 694 -104 l 694 -174 z "},"`":{"ha":308,"x_min":-22,"x_max":244,"o":"m 244 836 l 114 836 l -22 1036 l 169 1036 l 244 836 z "},"a":{"ha":668,"x_min":39,"x_max":619,"o":"m 235 518 l 63 518 l 63 536 q 135 712 63 657 q 325 767 207 767 q 540 709 483 767 q 596 538 596 651 l 596 144 q 619 0 596 58 l 436 0 q 413 78 424 22 l 410 78 q 335 1 378 21 q 219 -19 292 -19 q 83 44 128 -19 q 39 194 39 108 q 84 349 39 299 q 239 431 129 400 l 326 454 q 394 488 376 468 q 413 544 413 507 q 324 636 413 636 q 235 539 235 636 l 235 518 m 413 226 l 413 376 q 347 342 386 356 l 306 326 q 239 282 256 308 q 222 215 222 256 q 240 140 222 169 q 294 111 258 111 q 376 140 340 111 q 413 226 413 169 z "},"b":{"ha":694,"x_min":64,"x_max":649,"o":"m 64 0 l 64 992 l 256 992 l 256 678 l 258 678 q 419 767 318 767 q 593 674 538 767 q 649 374 649 581 q 593 74 649 167 q 419 -19 538 -19 q 250 79 310 -19 l 247 79 l 247 0 l 64 0 m 276 562 q 266 533 276 562 q 256 374 256 504 q 276 185 256 243 q 357 128 297 128 q 437 185 417 128 q 457 374 457 243 q 437 562 457 504 q 357 619 417 619 q 276 562 297 619 z "},"c":{"ha":643,"x_min":36,"x_max":607,"o":"m 607 478 l 424 478 q 338 628 424 628 q 249 570 271 628 q 228 372 228 513 q 249 169 228 228 q 331 111 269 111 q 401 153 379 111 q 424 286 424 194 l 607 286 q 539 58 607 135 q 322 -19 471 -19 q 105 68 174 -19 q 36 374 36 156 q 115 678 36 590 q 339 767 193 767 q 538 690 469 767 q 607 478 607 614 z "},"d":{"ha":694,"x_min":46,"x_max":631,"o":"m 447 0 l 447 79 l 444 79 q 275 -19 385 -19 q 101 74 157 -19 q 46 374 46 167 q 101 674 46 581 q 275 767 157 767 q 436 678 376 767 l 439 678 l 439 992 l 631 992 l 631 0 l 447 0 m 258 562 q 248 533 258 562 q 238 374 238 504 q 258 185 238 243 q 338 128 278 128 q 418 185 397 128 q 439 374 439 243 q 418 562 439 504 q 338 619 397 619 q 258 562 278 619 z "},"e":{"ha":643,"x_min":36,"x_max":607,"o":"m 607 344 l 228 344 l 228 285 q 250 160 228 210 q 322 111 272 111 q 392 144 369 111 q 424 251 415 178 l 596 251 q 325 -19 585 -19 q 222 -6 267 -19 q 147 26 176 7 q 95 80 117 46 q 63 144 74 114 q 45 221 51 175 q 38 299 39 267 q 36 381 36 332 q 42 499 36 447 q 66 603 47 550 q 117 690 85 656 q 203 745 149 724 q 333 767 258 767 q 549 672 490 767 q 607 388 607 576 l 607 344 m 228 458 l 424 458 q 401 594 421 553 q 326 636 382 636 q 251 593 274 636 q 228 488 228 550 l 228 458 z "},"f":{"ha":411,"x_min":8,"x_max":408,"o":"m 106 0 l 106 617 l 8 617 l 8 747 l 106 747 l 106 832 q 156 970 106 929 q 306 1011 207 1011 q 408 1007 356 1011 l 408 871 q 371 872 393 872 q 314 858 331 872 q 297 813 297 844 l 297 747 l 408 747 l 408 617 l 297 617 l 297 0 l 106 0 z "},"g":{"ha":694,"x_min":49,"x_max":624,"o":"m 240 350 q 260 208 240 260 q 336 156 281 156 q 417 211 394 156 q 440 369 440 267 q 419 564 440 508 q 340 619 397 619 q 260 563 279 619 q 240 350 240 507 m 440 747 l 624 747 l 624 38 q 551 -185 624 -114 q 313 -256 478 -256 q 124 -203 190 -256 q 58 -56 58 -151 l 242 -56 q 271 -112 242 -92 q 335 -133 301 -133 q 440 1 440 -133 l 440 100 l 438 100 q 278 8 374 8 q 105 97 161 8 q 49 386 49 186 q 57 522 49 463 q 88 640 65 581 q 160 733 111 700 q 283 767 210 767 q 438 664 388 767 l 440 664 l 440 747 z "},"h":{"ha":694,"x_min":64,"x_max":631,"o":"m 64 0 l 64 992 l 256 992 l 256 671 l 258 671 q 440 767 314 767 q 631 554 631 767 l 631 0 l 439 0 l 439 515 q 419 596 439 572 q 357 619 400 619 q 256 496 256 619 l 256 0 l 64 0 z "},"i":{"ha":333,"x_min":71,"x_max":263,"o":"m 71 839 l 71 1003 l 263 1003 l 263 839 l 71 839 m 71 0 l 71 747 l 263 747 l 263 0 l 71 0 z "},"j":{"ha":333,"x_min":-35,"x_max":263,"o":"m 71 839 l 71 1003 l 263 1003 l 263 839 l 71 839 m 71 14 l 71 747 l 263 747 l 263 -51 q 215 -198 263 -151 q 43 -244 167 -244 q -35 -242 21 -244 l -35 -103 q -4 -106 -19 -106 q 58 -80 44 -106 q 71 14 71 -54 z "},"k":{"ha":694,"x_min":71,"x_max":701,"o":"m 71 992 l 263 992 l 263 468 l 265 468 l 458 747 l 669 747 l 454 453 l 701 0 l 490 0 l 331 307 l 263 218 l 263 0 l 71 0 l 71 992 z "},"l":{"ha":333,"x_min":71,"x_max":263,"o":"m 71 0 l 71 992 l 263 992 l 263 0 l 71 0 z "},"m":{"ha":1053,"x_min":64,"x_max":989,"o":"m 64 0 l 64 747 l 247 747 l 247 671 l 250 671 q 439 767 318 767 q 611 647 579 767 l 614 647 q 803 767 658 767 q 989 543 989 767 l 989 0 l 797 0 l 797 522 q 722 619 797 619 q 622 492 622 619 l 622 0 l 431 0 l 431 522 q 356 619 431 619 q 256 492 256 619 l 256 0 l 64 0 z "},"n":{"ha":694,"x_min":64,"x_max":631,"o":"m 64 0 l 64 747 l 247 747 l 247 660 l 250 660 q 440 767 308 767 q 631 554 631 767 l 631 0 l 439 0 l 439 515 q 419 596 439 572 q 357 619 400 619 q 256 496 256 619 l 256 0 l 64 0 z "},"o":{"ha":667,"x_min":39,"x_max":628,"o":"m 39 374 q 107 669 39 572 q 333 767 175 767 q 563 674 499 769 q 628 374 628 579 q 560 78 628 175 q 333 -19 492 -19 q 103 73 168 -22 q 39 374 39 168 m 233 481 q 232 460 233 481 q 231 374 231 440 q 233 267 231 307 q 246 187 236 226 q 277 129 256 147 q 333 111 299 111 q 413 171 390 111 q 436 374 436 231 q 413 576 436 517 q 333 636 390 636 q 277 618 299 636 q 246 560 256 600 q 233 481 236 521 z "},"p":{"ha":694,"x_min":64,"x_max":649,"o":"m 64 -244 l 64 747 l 247 747 l 247 668 l 250 668 q 419 767 310 767 q 593 674 538 767 q 649 374 649 581 q 593 74 649 167 q 419 -19 538 -19 q 258 69 318 -19 l 256 69 l 256 -244 l 64 -244 m 276 562 q 266 533 276 562 q 256 374 256 504 q 276 185 256 243 q 357 128 297 128 q 437 185 417 128 q 457 374 457 243 q 437 562 457 504 q 357 619 417 619 q 276 562 297 619 z "},"q":{"ha":694,"x_min":46,"x_max":631,"o":"m 439 -244 l 439 69 l 436 69 q 275 -19 376 -19 q 101 74 157 -19 q 46 374 46 167 q 101 674 46 581 q 275 767 157 767 q 444 668 385 767 l 447 668 l 447 747 l 631 747 l 631 -244 l 439 -244 m 418 185 q 428 214 418 185 q 439 374 439 243 q 418 562 439 504 q 338 619 397 619 q 258 562 278 619 q 238 374 238 504 q 258 185 238 243 q 338 128 278 128 q 418 185 397 128 z "},"r":{"ha":463,"x_min":64,"x_max":457,"o":"m 64 0 l 64 747 l 247 747 l 247 647 l 250 647 q 422 767 314 767 q 457 764 435 767 l 457 581 q 397 583 415 583 q 297 551 339 583 q 256 449 256 518 l 256 0 l 64 0 z "},"s":{"ha":617,"x_min":32,"x_max":585,"o":"m 32 244 l 204 244 l 204 219 q 230 140 204 169 q 304 111 256 111 q 401 200 401 111 q 332 285 401 258 l 197 333 q 38 542 38 390 q 106 703 38 640 q 313 767 174 767 q 568 554 568 767 l 568 524 l 396 524 q 376 609 396 582 q 311 636 357 636 q 247 615 272 636 q 221 556 221 594 q 304 468 221 494 l 419 429 q 547 349 510 399 q 585 215 585 300 q 508 41 585 101 q 307 -19 432 -19 q 92 41 153 -19 q 32 218 32 101 l 32 244 z "},"t":{"ha":411,"x_min":8,"x_max":408,"o":"m 106 747 l 106 961 l 297 961 l 297 747 l 408 747 l 408 617 l 297 617 l 297 213 q 311 149 297 167 q 365 131 325 131 q 408 133 383 131 l 408 0 q 283 -8 322 -8 q 140 32 174 -8 q 106 189 106 72 l 106 617 l 8 617 l 8 747 l 106 747 z "},"u":{"ha":694,"x_min":64,"x_max":631,"o":"m 447 0 l 447 88 l 444 88 q 254 -19 386 -19 q 64 193 64 -19 l 64 747 l 256 747 l 256 232 q 275 151 256 175 q 338 128 294 128 q 439 251 439 128 l 439 747 l 631 747 l 631 0 l 447 0 z "},"v":{"ha":617,"x_min":7,"x_max":610,"o":"m 317 213 l 418 747 l 610 747 l 422 0 l 200 0 l 7 747 l 207 747 l 314 213 l 317 213 z "},"w":{"ha":978,"x_min":10,"x_max":968,"o":"m 172 0 l 10 747 l 201 747 l 289 217 l 292 217 l 385 747 l 593 747 l 692 217 l 694 217 l 785 747 l 968 747 l 807 0 l 589 0 l 490 531 l 488 531 l 394 0 l 172 0 z "},"x":{"ha":642,"x_min":10,"x_max":632,"o":"m 321 522 l 424 747 l 624 747 l 429 385 l 632 0 l 432 0 l 321 244 l 210 0 l 10 0 l 213 385 l 18 747 l 218 747 l 321 522 z "},"y":{"ha":617,"x_min":7,"x_max":610,"o":"m 64 -244 l 64 -101 q 114 -106 89 -106 q 217 0 208 -106 l 7 747 l 207 747 l 318 231 l 321 231 l 418 747 l 610 747 l 429 50 q 381 -106 403 -51 q 326 -193 360 -160 q 253 -235 293 -226 q 142 -244 213 -244 l 64 -244 z "},"z":{"ha":592,"x_min":33,"x_max":558,"o":"m 33 0 l 33 147 l 332 592 l 47 592 l 47 747 l 558 747 l 558 600 l 260 156 l 558 156 l 558 0 l 33 0 z "},"{":{"ha":438,"x_min":42,"x_max":401,"o":"m 42 311 l 42 425 q 106 458 78 425 q 133 538 133 490 l 133 806 q 170 943 133 894 q 278 992 207 992 l 401 992 l 401 853 l 360 853 q 306 753 306 853 l 306 522 q 278 419 306 460 q 206 369 251 378 l 206 367 q 278 317 251 358 q 306 214 306 276 l 306 -17 q 360 -117 306 -117 l 401 -117 l 401 -256 l 278 -256 q 170 -207 207 -256 q 133 -69 133 -158 l 133 199 q 106 278 133 246 q 42 311 78 311 z "},"|":{"ha":308,"x_min":68,"x_max":240,"o":"m 68 -19 l 68 1011 l 240 1011 l 240 -19 l 68 -19 z "},"}":{"ha":438,"x_min":36,"x_max":396,"o":"m 36 -256 l 36 -117 l 78 -117 q 132 -17 132 -117 l 132 214 q 159 317 132 276 q 232 367 186 358 l 232 369 q 159 419 186 378 q 132 522 132 460 l 132 753 q 78 853 132 853 l 36 853 l 36 992 l 160 992 q 267 943 231 992 q 304 806 304 894 l 304 538 q 332 458 304 490 q 396 425 360 425 l 396 311 q 332 278 360 311 q 304 199 304 246 l 304 -69 q 267 -207 304 -158 q 160 -256 231 -256 l 36 -256 z "},"~":{"ha":833,"x_min":96,"x_max":738,"o":"m 688 485 l 738 338 q 567 218 674 218 q 403 265 494 218 q 271 313 311 313 q 197 281 233 313 q 146 218 160 249 l 96 365 q 267 485 160 485 q 418 444 340 485 q 563 390 521 390 q 637 422 600 390 q 688 485 674 454 z "}," ":{"ha":333,"x_min":0,"x_max":0,"o":""},"¡":{"ha":411,"x_min":110,"x_max":301,"o":"m 110 564 l 110 747 l 301 747 l 301 564 l 110 564 m 110 -244 l 110 78 l 136 471 l 275 471 l 301 78 l 301 -244 l 110 -244 z "},"¢":{"ha":667,"x_min":46,"x_max":621,"o":"m 308 -142 l 308 -19 q 204 1 249 -17 q 122 60 160 19 q 65 178 85 101 q 46 368 46 256 q 56 517 46 454 q 94 638 67 581 q 174 727 121 694 q 308 767 228 760 l 308 872 l 381 872 l 381 767 q 621 483 621 753 l 438 483 q 381 628 438 606 l 381 119 q 438 290 438 153 l 621 290 q 564 72 621 149 q 381 -19 507 -4 l 381 -142 l 308 -142 m 308 119 l 308 628 q 251 554 265 613 q 238 376 238 496 q 240 261 238 301 q 258 175 242 221 q 308 119 275 129 z "},"£":{"ha":667,"x_min":7,"x_max":660,"o":"m 13 425 l 13 539 l 106 539 q 43 736 43 660 q 119 914 43 844 q 340 983 196 983 q 643 696 638 983 l 460 696 q 351 853 460 853 q 263 822 290 853 q 235 743 235 790 q 271 618 235 692 l 310 539 l 542 539 l 542 425 l 346 425 q 353 371 353 404 q 325 261 353 310 q 228 154 297 213 l 233 151 q 296 161 256 161 q 372 140 314 161 q 454 119 429 119 q 599 178 510 119 l 660 47 q 453 -19 558 -19 q 333 6 422 -19 q 200 31 244 31 q 64 -8 142 31 l 7 111 q 125 223 81 158 q 169 357 169 288 q 154 425 169 386 l 13 425 z "},"¤":{"ha":667,"x_min":0,"x_max":667,"o":"m 209 613 q 186 589 209 613 q 163 482 163 565 q 209 351 163 399 q 333 303 256 303 q 458 351 411 303 q 504 482 504 399 q 458 613 504 565 q 333 661 411 661 q 209 613 256 661 m 85 149 l 0 235 l 69 304 q 15 482 15 386 q 69 660 15 579 l 0 729 l 85 815 l 156 746 q 333 800 236 800 q 511 746 431 800 l 582 815 l 667 729 l 597 660 q 651 482 651 579 q 597 304 651 385 l 667 235 l 582 149 l 511 219 q 333 164 431 164 q 156 219 233 164 l 85 149 z "},"¥":{"ha":667,"x_min":-24,"x_max":690,"o":"m 247 0 l 247 221 l 50 221 l 50 335 l 247 335 l 247 394 l 232 426 l 50 426 l 50 540 l 178 540 l -24 964 l 183 964 l 332 590 l 335 590 l 490 964 l 690 964 l 489 540 l 617 540 l 617 426 l 435 426 l 419 394 l 419 335 l 617 335 l 617 221 l 419 221 l 419 0 l 247 0 z "},"¦":{"ha":308,"x_min":68,"x_max":240,"o":"m 68 635 l 68 1011 l 240 1011 l 240 635 l 68 635 m 68 -19 l 68 357 l 240 357 l 240 -19 l 68 -19 z "},"§":{"ha":668,"x_min":18,"x_max":650,"o":"m 240 372 q 426 272 411 283 q 486 372 486 322 q 465 433 486 408 q 392 486 444 458 l 258 557 q 182 457 182 513 q 240 372 182 403 m 53 51 l 236 51 l 236 31 q 263 -51 236 -21 q 333 -81 290 -81 q 402 -53 379 -81 q 425 13 425 -26 q 336 129 425 86 l 165 215 q 18 425 18 289 q 51 542 18 490 q 143 624 85 594 q 60 782 60 686 q 138 956 60 900 q 344 1011 215 1011 q 544 951 479 1011 q 608 786 608 890 l 425 786 q 329 881 425 881 q 266 858 289 881 q 243 801 243 836 q 332 706 243 749 l 497 628 q 650 401 650 556 q 619 289 650 347 q 542 204 589 231 q 617 32 617 143 q 333 -211 617 -211 q 124 -147 194 -211 q 53 31 53 -83 l 53 51 z "},"¨":{"ha":308,"x_min":-43,"x_max":351,"o":"m 196 854 l 196 1018 l 351 1018 l 351 854 l 196 854 m -43 854 l -43 1018 l 113 1018 l 113 854 l -43 854 z "},"©":{"ha":1111,"x_min":40,"x_max":1071,"o":"m 191 131 q 116 207 191 131 q 40 496 40 282 q 191 860 40 710 q 556 1011 342 1011 q 920 860 769 1011 q 1071 496 1071 710 q 920 131 1071 282 q 556 -19 769 -19 q 191 131 342 -19 m 299 756 q 248 702 299 756 q 196 496 196 649 q 299 235 196 343 q 556 128 403 128 q 812 235 708 128 q 915 496 915 343 q 812 756 915 649 q 556 864 708 864 q 299 756 403 864 m 688 414 l 826 414 q 740 255 810 313 q 576 197 669 197 q 368 284 447 197 q 289 500 289 371 q 365 717 289 632 q 572 803 442 803 q 739 747 669 803 q 821 590 808 690 l 688 590 q 565 683 661 683 q 458 633 496 683 q 419 500 419 582 q 459 369 419 422 q 564 317 499 317 q 648 343 615 317 q 688 414 681 369 z "},"ª":{"ha":436,"x_min":14,"x_max":422,"o":"m 268 664 l 268 746 q 221 724 250 733 l 192 714 q 153 657 153 700 q 197 599 153 599 q 247 615 225 599 q 268 664 268 631 m 407 846 l 407 607 q 422 519 407 553 l 283 519 q 268 568 279 525 q 217 522 244 533 q 138 510 189 510 q 44 547 74 510 q 14 638 14 585 q 42 734 14 703 q 138 779 69 765 l 218 796 q 268 843 268 807 q 217 894 268 894 q 160 840 160 894 l 160 828 l 29 828 l 29 846 q 219 983 29 983 q 369 949 331 983 q 407 846 407 914 z "},"«":{"ha":592,"x_min":72,"x_max":519,"o":"m 72 289 l 72 514 l 279 681 l 279 497 l 169 401 l 279 306 l 279 122 l 72 289 m 313 289 l 313 514 l 519 681 l 519 497 l 410 401 l 519 306 l 519 122 l 313 289 z "},"¬":{"ha":833,"x_min":65,"x_max":768,"o":"m 596 136 l 596 417 l 65 417 l 65 589 l 768 589 l 768 136 l 596 136 z "},"­":{"ha":514,"x_min":61,"x_max":453,"o":"m 61 483 l 453 483 l 453 319 l 61 319 l 61 483 z "},"®":{"ha":1111,"x_min":40,"x_max":1071,"o":"m 299 756 q 248 702 299 756 q 196 496 196 649 q 299 235 196 343 q 556 128 403 128 q 812 235 708 128 q 915 496 915 343 q 812 756 915 649 q 556 864 708 864 q 299 756 403 864 m 191 131 q 116 207 191 131 q 40 496 40 282 q 191 860 40 710 q 556 1011 342 1011 q 920 860 769 1011 q 1071 496 1071 710 q 920 131 1071 282 q 556 -19 769 -19 q 191 131 342 -19 m 476 676 l 476 539 l 569 539 q 639 553 615 539 q 663 608 663 567 q 557 676 663 676 l 476 676 m 354 218 l 354 774 l 571 774 q 785 601 785 774 q 747 495 785 535 q 647 447 708 456 l 785 218 l 651 218 l 521 442 l 476 442 l 476 218 l 354 218 z "},"¯":{"ha":308,"x_min":-50,"x_max":358,"o":"m -50 989 l 358 989 l 358 883 l -50 883 l -50 989 z "},"°":{"ha":556,"x_min":72,"x_max":483,"o":"m 207 849 q 192 834 207 849 q 178 778 178 819 q 207 707 178 736 q 278 678 236 678 q 349 707 319 678 q 378 778 378 736 q 349 849 378 819 q 278 878 319 878 q 207 849 236 878 m 132 632 q 102 662 132 632 q 72 778 72 692 q 132 924 72 864 q 278 983 192 983 q 424 924 364 983 q 483 778 483 864 q 424 632 483 692 q 278 572 364 572 q 132 632 192 572 z "},"±":{"ha":833,"x_min":65,"x_max":768,"o":"m 65 0 l 65 172 l 768 172 l 768 0 l 65 0 m 331 553 l 331 703 l 503 703 l 503 553 l 768 553 l 768 381 l 503 381 l 503 231 l 331 231 l 331 381 l 65 381 l 65 553 l 331 553 z "},"²":{"ha":500,"x_min":33,"x_max":467,"o":"m 467 556 l 33 556 q 174 817 33 718 l 243 867 q 311 979 311 915 q 295 1026 311 1008 q 251 1044 279 1044 q 181 943 181 1044 l 33 943 l 33 978 q 256 1150 33 1150 q 467 1000 467 1150 q 447 900 467 940 q 375 819 428 860 l 296 758 q 222 669 232 710 l 467 669 l 467 556 z "},"³":{"ha":500,"x_min":33,"x_max":467,"o":"m 33 744 l 181 744 q 249 651 183 651 q 311 725 311 651 q 228 813 311 813 l 189 813 l 189 910 l 228 910 q 284 931 265 910 q 303 983 303 953 q 287 1027 303 1010 q 246 1044 271 1044 q 182 961 182 1044 l 43 961 q 93 1104 43 1056 q 244 1150 140 1150 q 400 1114 350 1150 q 450 999 450 1078 q 424 910 450 944 q 353 867 399 876 l 353 864 q 467 725 467 843 q 232 546 467 546 q 33 731 33 546 l 33 744 z "},"´":{"ha":308,"x_min":64,"x_max":331,"o":"m 64 836 l 139 1036 l 331 1036 l 194 836 l 64 836 z "},"µ":{"ha":707,"x_min":61,"x_max":696,"o":"m 625 747 l 625 206 q 630 129 625 147 q 654 111 635 111 q 696 121 671 111 l 696 7 q 599 -19 661 -19 q 449 94 478 -19 l 446 94 q 385 8 425 36 q 304 -19 346 -19 q 253 -3 269 -19 l 253 -244 l 61 -244 l 61 747 l 254 747 l 254 233 q 325 131 254 131 q 403 168 374 131 q 432 274 432 206 l 432 747 l 625 747 z "},"¶":{"ha":667,"x_min":1,"x_max":649,"o":"m 253 -192 l 253 465 q 65 531 129 465 q 1 724 1 597 q 72 933 1 874 q 276 992 143 992 l 649 992 l 649 -192 l 501 -192 l 501 861 l 400 861 l 400 -192 l 253 -192 z "},"·":{"ha":333,"x_min":32,"x_max":301,"o":"m 71 296 q 51 315 71 296 q 32 392 32 335 q 71 488 32 449 q 167 526 110 526 q 263 488 224 526 q 301 392 301 449 q 263 296 301 335 q 167 257 224 257 q 71 296 110 257 z "},"¸":{"ha":308,"x_min":0,"x_max":317,"o":"m 132 0 l 204 0 l 151 -81 q 197 -74 172 -74 q 281 -101 246 -74 q 314 -174 317 -128 q 269 -268 314 -235 q 139 -301 224 -301 q 0 -275 47 -301 l 26 -211 q 122 -232 65 -232 q 172 -219 151 -232 q 192 -186 192 -207 q 131 -142 192 -144 q 83 -150 106 -142 l 53 -122 l 132 0 z "},"¹":{"ha":500,"x_min":108,"x_max":390,"o":"m 235 556 l 235 958 l 108 958 l 108 1056 l 119 1056 q 271 1150 253 1056 l 390 1150 l 390 556 l 235 556 z "},"º":{"ha":436,"x_min":17,"x_max":419,"o":"m 168 857 q 162 838 168 857 q 156 746 156 819 q 167 635 156 672 q 218 599 179 599 q 267 633 253 599 q 281 746 281 667 q 267 860 281 825 q 218 894 253 894 q 168 857 181 894 m 17 746 q 62 926 17 868 q 218 983 107 983 q 376 929 332 986 q 419 746 419 872 q 374 567 419 625 q 218 510 329 510 q 60 564 104 507 q 17 746 17 621 z "},"»":{"ha":592,"x_min":72,"x_max":519,"o":"m 313 122 l 313 306 l 422 401 l 313 497 l 313 681 l 519 514 l 519 289 l 313 122 m 72 122 l 72 306 l 182 401 l 72 497 l 72 681 l 279 514 l 279 289 l 72 122 z "},"¼":{"ha":1181,"x_min":89,"x_max":1090,"o":"m 215 389 l 215 792 l 89 792 l 89 889 l 100 889 q 251 983 233 889 l 371 983 l 371 389 l 215 389 m 222 -43 l 786 1007 l 910 1007 l 346 -43 l 222 -43 m 646 107 l 646 233 l 857 594 l 1029 594 l 1029 221 l 1090 221 l 1090 107 l 1029 107 l 1029 0 l 882 0 l 882 107 l 646 107 m 882 221 l 882 422 l 879 422 l 760 221 l 882 221 z "},"½":{"ha":1181,"x_min":89,"x_max":1090,"o":"m 1090 0 l 657 0 q 797 261 657 163 l 867 311 q 935 424 935 360 q 919 471 935 453 q 875 489 903 489 q 804 388 804 489 l 657 388 l 657 422 q 879 594 657 594 q 1090 444 1090 594 q 1071 344 1090 385 q 999 264 1051 304 l 919 203 q 846 114 856 154 l 1090 114 l 1090 0 m 215 389 l 215 792 l 89 792 l 89 889 l 100 889 q 251 983 233 889 l 371 983 l 371 389 l 215 389 m 189 -43 l 753 1007 l 876 1007 l 313 -43 l 189 -43 z "},"¾":{"ha":1181,"x_min":89,"x_max":1090,"o":"m 89 578 l 236 578 q 304 485 239 485 q 367 558 367 485 q 283 646 367 646 l 244 646 l 244 743 l 283 743 q 340 765 321 743 q 358 817 358 786 q 342 860 358 843 q 301 878 326 878 q 238 794 238 878 l 99 794 q 149 938 99 889 q 300 983 196 983 q 456 947 406 983 q 506 832 506 911 q 480 744 506 778 q 408 700 454 710 l 408 697 q 522 558 522 676 q 288 379 522 379 q 89 564 89 379 l 89 578 m 276 -43 l 840 1007 l 964 1007 l 400 -43 l 276 -43 m 760 221 l 882 221 l 882 422 l 879 422 l 760 221 m 646 107 l 646 233 l 857 594 l 1029 594 l 1029 221 l 1090 221 l 1090 107 l 1029 107 l 1029 0 l 882 0 l 882 107 l 646 107 z "},"¿":{"ha":668,"x_min":50,"x_max":618,"o":"m 443 564 l 251 564 l 251 747 l 443 747 l 443 564 m 435 63 l 618 63 l 618 31 q 547 -177 618 -99 q 343 -256 476 -256 q 125 -184 200 -256 q 50 13 50 -112 q 138 229 50 129 l 193 292 q 247 367 232 335 q 261 451 261 400 l 261 472 l 433 472 l 433 418 q 414 302 433 350 q 347 200 394 254 l 294 140 q 242 -7 242 82 q 266 -93 242 -61 q 336 -125 290 -125 q 435 28 435 -125 l 435 63 z "},"À":{"ha":772,"x_min":0,"x_max":772,"o":"m 385 819 l 289 374 l 483 374 l 388 819 l 385 819 m 0 0 l 263 992 l 510 992 l 772 0 l 564 0 l 518 210 l 254 210 l 208 0 l 0 0 m 472 1050 l 342 1050 l 206 1250 l 397 1250 l 472 1050 z "},"Á":{"ha":772,"x_min":0,"x_max":772,"o":"m 385 819 l 289 374 l 483 374 l 388 819 l 385 819 m 0 0 l 263 992 l 510 992 l 772 0 l 564 0 l 518 210 l 254 210 l 208 0 l 0 0 m 294 1050 l 369 1250 l 561 1250 l 425 1050 l 294 1050 z "},"Â":{"ha":772,"x_min":0,"x_max":772,"o":"m 385 819 l 289 374 l 483 374 l 388 819 l 385 819 m 0 0 l 263 992 l 510 992 l 772 0 l 564 0 l 518 210 l 254 210 l 208 0 l 0 0 m 176 1050 l 285 1250 l 485 1250 l 593 1050 l 446 1050 l 382 1168 l 315 1050 l 176 1050 z "},"Ã":{"ha":772,"x_min":0,"x_max":772,"o":"m 385 819 l 289 374 l 483 374 l 388 819 l 385 819 m 0 0 l 263 992 l 510 992 l 772 0 l 564 0 l 518 210 l 254 210 l 208 0 l 0 0 m 265 1063 l 168 1063 q 297 1235 192 1235 q 387 1211 329 1235 q 465 1188 444 1188 q 494 1204 483 1188 q 504 1238 504 1221 l 604 1238 q 563 1113 597 1161 q 475 1065 528 1065 q 388 1089 444 1065 q 310 1113 331 1113 q 265 1063 275 1113 z "},"Ä":{"ha":772,"x_min":0,"x_max":772,"o":"m 385 819 l 289 374 l 483 374 l 388 819 l 385 819 m 0 0 l 263 992 l 510 992 l 772 0 l 564 0 l 518 210 l 254 210 l 208 0 l 0 0 m 428 1071 l 428 1235 l 583 1235 l 583 1071 l 428 1071 m 189 1071 l 189 1235 l 344 1235 l 344 1071 l 189 1071 z "},"Å":{"ha":772,"x_min":0,"x_max":772,"o":"m 385 819 l 289 374 l 483 374 l 388 819 l 385 819 m 0 0 l 263 992 l 510 992 l 772 0 l 564 0 l 518 210 l 254 210 l 208 0 l 0 0 m 331 1228 q 320 1217 331 1228 q 308 1172 308 1206 q 331 1116 308 1139 q 388 1093 354 1093 q 444 1116 421 1093 q 467 1172 467 1139 q 444 1228 467 1206 q 388 1251 421 1251 q 331 1228 354 1251 m 231 1172 q 276 1282 231 1239 q 388 1325 322 1325 q 499 1282 453 1325 q 544 1172 544 1239 q 499 1064 544 1106 q 388 1022 454 1022 q 275 1063 319 1022 q 231 1172 231 1104 z "},"Æ":{"ha":1054,"x_min":-7,"x_max":1024,"o":"m 325 374 l 492 374 l 492 836 l 479 836 l 325 374 m -7 0 l 367 992 l 1010 992 l 1010 828 l 683 828 l 683 594 l 989 594 l 989 431 l 683 431 l 683 164 l 1024 164 l 1024 0 l 492 0 l 492 210 l 271 210 l 201 0 l -7 0 z "},"Ç":{"ha":746,"x_min":49,"x_max":701,"o":"m 693 657 l 493 657 q 467 816 493 768 q 374 864 440 864 q 274 781 300 864 q 249 482 249 699 q 263 256 249 335 q 304 153 278 178 q 376 128 331 128 q 469 179 438 128 q 501 379 501 231 l 701 379 q 667 149 701 242 q 546 13 633 57 q 410 -19 490 -15 l 369 -81 q 415 -74 390 -74 q 499 -101 464 -74 q 532 -174 535 -128 q 487 -268 532 -235 q 357 -301 442 -301 q 218 -275 265 -301 l 244 -211 q 340 -232 283 -232 q 390 -219 369 -232 q 410 -186 410 -207 q 349 -142 410 -144 q 301 -150 325 -142 l 271 -122 l 339 -17 q 207 18 258 -11 q 81 188 113 74 q 49 496 49 301 q 55 667 49 597 q 81 806 61 736 q 138 918 101 876 q 236 985 174 960 q 386 1011 299 1011 q 528 987 468 1011 q 618 929 588 963 q 667 843 649 896 q 689 750 685 790 q 693 657 693 710 z "},"È":{"ha":668,"x_min":69,"x_max":638,"o":"m 69 992 l 624 992 l 624 828 l 269 828 l 269 594 l 603 594 l 603 431 l 269 431 l 269 164 l 638 164 l 638 0 l 69 0 l 69 992 m 443 1050 l 313 1050 l 176 1250 l 368 1250 l 443 1050 z "},"É":{"ha":668,"x_min":69,"x_max":638,"o":"m 69 992 l 624 992 l 624 828 l 269 828 l 269 594 l 603 594 l 603 431 l 269 431 l 269 164 l 638 164 l 638 0 l 69 0 l 69 992 m 276 1050 l 351 1250 l 543 1250 l 407 1050 l 276 1050 z "},"Ê":{"ha":668,"x_min":69,"x_max":638,"o":"m 69 992 l 624 992 l 624 828 l 269 828 l 269 594 l 603 594 l 603 431 l 269 431 l 269 164 l 638 164 l 638 0 l 69 0 l 69 992 m 140 1050 l 249 1250 l 449 1250 l 557 1050 l 410 1050 l 346 1168 l 279 1050 l 140 1050 z "},"Ë":{"ha":668,"x_min":69,"x_max":638,"o":"m 69 992 l 624 992 l 624 828 l 269 828 l 269 594 l 603 594 l 603 431 l 269 431 l 269 164 l 638 164 l 638 0 l 69 0 l 69 992 m 386 1068 l 386 1232 l 542 1232 l 542 1068 l 386 1068 m 147 1068 l 147 1232 l 303 1232 l 303 1068 l 147 1068 z "},"Ì":{"ha":358,"x_min":14,"x_max":281,"o":"m 279 0 l 79 0 l 79 992 l 279 992 l 279 0 m 281 1050 l 150 1050 l 14 1250 l 206 1250 l 281 1050 z "},"Í":{"ha":358,"x_min":79,"x_max":347,"o":"m 279 0 l 79 0 l 79 992 l 279 992 l 279 0 m 81 1050 l 156 1250 l 347 1250 l 211 1050 l 81 1050 z "},"Î":{"ha":358,"x_min":-26,"x_max":390,"o":"m 279 0 l 79 0 l 79 992 l 279 992 l 279 0 m -26 1050 l 82 1250 l 282 1250 l 390 1050 l 243 1050 l 179 1168 l 113 1050 l -26 1050 z "},"Ï":{"ha":358,"x_min":-17,"x_max":378,"o":"m 279 0 l 79 0 l 79 992 l 279 992 l 279 0 m 222 1068 l 222 1232 l 378 1232 l 378 1068 l 222 1068 m -17 1068 l -17 1232 l 139 1232 l 139 1068 l -17 1068 z "},"Ð":{"ha":797,"x_min":0,"x_max":735,"o":"m 279 844 l 279 585 l 408 585 l 408 438 l 279 438 l 279 147 l 368 147 q 502 222 469 147 q 535 504 535 296 q 529 653 535 597 q 506 757 524 710 q 454 824 489 804 q 364 844 419 844 l 279 844 m 79 0 l 79 438 l 0 438 l 0 585 l 79 585 l 79 992 l 407 992 q 574 959 508 992 q 675 859 640 926 q 722 710 710 792 q 735 510 735 629 q 661 119 735 238 q 394 0 588 0 l 79 0 z "},"Ñ":{"ha":797,"x_min":69,"x_max":728,"o":"m 69 992 l 300 992 l 542 313 l 544 313 l 544 992 l 728 992 l 728 0 l 500 0 l 256 694 l 253 694 l 253 0 l 69 0 l 69 992 m 281 1063 l 183 1063 q 313 1235 207 1235 q 402 1211 344 1235 q 481 1188 460 1188 q 509 1204 499 1188 q 519 1238 519 1221 l 619 1238 q 578 1113 613 1161 q 490 1065 543 1065 q 403 1089 460 1065 q 325 1113 346 1113 q 281 1063 292 1113 z "},"Ò":{"ha":772,"x_min":49,"x_max":724,"o":"m 55 325 q 52 360 55 325 q 49 496 49 394 q 55 667 49 597 q 81 806 61 736 q 138 918 101 876 q 236 985 174 960 q 386 1011 299 1011 q 536 985 474 1011 q 635 918 599 960 q 691 806 671 876 q 717 667 711 736 q 724 496 724 597 q 717 325 724 394 q 691 185 711 256 q 635 74 671 115 q 536 6 599 32 q 386 -19 474 -19 q 236 6 299 -19 q 138 74 174 32 q 81 185 101 115 q 55 325 61 256 m 249 496 q 275 206 249 285 q 386 128 301 128 q 497 206 471 128 q 524 496 524 285 q 497 785 524 706 q 386 864 471 864 q 275 785 301 864 q 249 496 249 706 m 472 1050 l 342 1050 l 206 1250 l 397 1250 l 472 1050 z "},"Ó":{"ha":772,"x_min":49,"x_max":724,"o":"m 55 325 q 52 360 55 325 q 49 496 49 394 q 55 667 49 597 q 81 806 61 736 q 138 918 101 876 q 236 985 174 960 q 386 1011 299 1011 q 536 985 474 1011 q 635 918 599 960 q 691 806 671 876 q 717 667 711 736 q 724 496 724 597 q 717 325 724 394 q 691 185 711 256 q 635 74 671 115 q 536 6 599 32 q 386 -19 474 -19 q 236 6 299 -19 q 138 74 174 32 q 81 185 101 115 q 55 325 61 256 m 249 496 q 275 206 249 285 q 386 128 301 128 q 497 206 471 128 q 524 496 524 285 q 497 785 524 706 q 386 864 471 864 q 275 785 301 864 q 249 496 249 706 m 315 1050 l 390 1250 l 582 1250 l 446 1050 l 315 1050 z "},"Ô":{"ha":772,"x_min":49,"x_max":724,"o":"m 55 325 q 52 360 55 325 q 49 496 49 394 q 55 667 49 597 q 81 806 61 736 q 138 918 101 876 q 236 985 174 960 q 386 1011 299 1011 q 536 985 474 1011 q 635 918 599 960 q 691 806 671 876 q 717 667 711 736 q 724 496 724 597 q 717 325 724 394 q 691 185 711 256 q 635 74 671 115 q 536 6 599 32 q 386 -19 474 -19 q 236 6 299 -19 q 138 74 174 32 q 81 185 101 115 q 55 325 61 256 m 249 496 q 275 206 249 285 q 386 128 301 128 q 497 206 471 128 q 524 496 524 285 q 497 785 524 706 q 386 864 471 864 q 275 785 301 864 q 249 496 249 706 m 181 1050 l 289 1250 l 489 1250 l 597 1050 l 450 1050 l 386 1168 l 319 1050 l 181 1050 z "},"Õ":{"ha":772,"x_min":49,"x_max":724,"o":"m 55 325 q 52 360 55 325 q 49 496 49 394 q 55 667 49 597 q 81 806 61 736 q 138 918 101 876 q 236 985 174 960 q 386 1011 299 1011 q 536 985 474 1011 q 635 918 599 960 q 691 806 671 876 q 717 667 711 736 q 724 496 724 597 q 717 325 724 394 q 691 185 711 256 q 635 74 671 115 q 536 6 599 32 q 386 -19 474 -19 q 236 6 299 -19 q 138 74 174 32 q 81 185 101 115 q 55 325 61 256 m 249 496 q 275 206 249 285 q 386 128 301 128 q 497 206 471 128 q 524 496 524 285 q 497 785 524 706 q 386 864 471 864 q 275 785 301 864 q 249 496 249 706 m 264 1063 l 167 1063 q 296 1235 190 1235 q 385 1211 328 1235 q 464 1188 443 1188 q 492 1204 482 1188 q 503 1238 503 1221 l 603 1238 q 561 1113 596 1161 q 474 1065 526 1065 q 386 1089 443 1065 q 308 1113 329 1113 q 264 1063 275 1113 z "},"Ö":{"ha":772,"x_min":49,"x_max":724,"o":"m 55 325 q 52 360 55 325 q 49 496 49 394 q 55 667 49 597 q 81 806 61 736 q 138 918 101 876 q 236 985 174 960 q 386 1011 299 1011 q 536 985 474 1011 q 635 918 599 960 q 691 806 671 876 q 717 667 711 736 q 724 496 724 597 q 717 325 724 394 q 691 185 711 256 q 635 74 671 115 q 536 6 599 32 q 386 -19 474 -19 q 236 6 299 -19 q 138 74 174 32 q 81 185 101 115 q 55 325 61 256 m 249 496 q 275 206 249 285 q 386 128 301 128 q 497 206 471 128 q 524 496 524 285 q 497 785 524 706 q 386 864 471 864 q 275 785 301 864 q 249 496 249 706 m 429 1068 l 429 1232 l 585 1232 l 585 1068 l 429 1068 m 190 1068 l 190 1232 l 346 1232 l 346 1068 l 190 1068 z "},"×":{"ha":833,"x_min":82,"x_max":751,"o":"m 82 136 l 299 351 l 82 567 l 201 686 l 417 469 l 632 686 l 751 567 l 535 351 l 751 136 l 632 17 l 417 233 l 201 17 l 82 136 z "},"Ø":{"ha":772,"x_min":49,"x_max":724,"o":"m 115 -42 l 157 56 q 71 221 93 114 q 49 496 49 328 q 55 667 49 597 q 81 806 61 736 q 138 918 101 876 q 236 985 174 960 q 386 1011 299 1011 q 554 978 488 1011 l 590 1063 l 657 1033 l 615 936 q 701 771 679 878 q 724 496 724 664 q 717 325 724 394 q 691 185 711 256 q 635 74 671 115 q 536 6 599 32 q 386 -19 474 -19 q 218 14 283 -19 l 182 -71 l 115 -42 m 513 701 l 289 179 q 386 128 315 128 q 497 206 471 128 q 524 496 524 285 q 515 701 524 636 l 513 701 m 260 290 l 483 814 q 386 864 453 864 q 275 785 301 864 q 249 496 249 706 q 257 290 249 351 l 260 290 z "},"Ù":{"ha":747,"x_min":57,"x_max":690,"o":"m 57 992 l 257 992 l 257 300 q 282 173 257 218 q 374 128 307 128 q 465 173 440 128 q 490 300 490 218 l 490 992 l 690 992 l 690 300 q 665 145 690 210 q 592 46 639 81 q 492 -4 546 11 q 374 -19 439 -19 q 255 -6 307 -19 q 156 40 203 7 q 83 139 108 74 q 57 300 57 204 l 57 992 m 463 1050 l 332 1050 l 196 1250 l 388 1250 l 463 1050 z "},"Ú":{"ha":747,"x_min":57,"x_max":690,"o":"m 57 992 l 257 992 l 257 300 q 282 173 257 218 q 374 128 307 128 q 465 173 440 128 q 490 300 490 218 l 490 992 l 690 992 l 690 300 q 665 145 690 210 q 592 46 639 81 q 492 -4 546 11 q 374 -19 439 -19 q 255 -6 307 -19 q 156 40 203 7 q 83 139 108 74 q 57 300 57 204 l 57 992 m 306 1050 l 381 1250 l 572 1250 l 436 1050 l 306 1050 z "},"Û":{"ha":747,"x_min":57,"x_max":690,"o":"m 57 992 l 257 992 l 257 300 q 282 173 257 218 q 374 128 307 128 q 465 173 440 128 q 490 300 490 218 l 490 992 l 690 992 l 690 300 q 665 145 690 210 q 592 46 639 81 q 492 -4 546 11 q 374 -19 439 -19 q 255 -6 307 -19 q 156 40 203 7 q 83 139 108 74 q 57 300 57 204 l 57 992 m 167 1050 l 275 1250 l 475 1250 l 583 1050 l 436 1050 l 372 1168 l 306 1050 l 167 1050 z "},"Ü":{"ha":747,"x_min":57,"x_max":690,"o":"m 57 992 l 257 992 l 257 300 q 282 173 257 218 q 374 128 307 128 q 465 173 440 128 q 490 300 490 218 l 490 992 l 690 992 l 690 300 q 665 145 690 210 q 592 46 639 81 q 492 -4 546 11 q 374 -19 439 -19 q 255 -6 307 -19 q 156 40 203 7 q 83 139 108 74 q 57 300 57 204 l 57 992 m 415 1068 l 415 1232 l 571 1232 l 571 1068 l 415 1068 m 176 1068 l 176 1232 l 332 1232 l 332 1068 l 176 1068 z "},"Ý":{"ha":722,"x_min":4,"x_max":718,"o":"m 4 992 l 229 992 l 360 608 l 363 608 l 501 992 l 718 992 l 461 390 l 461 0 l 261 0 l 261 390 l 4 992 m 300 1053 l 375 1253 l 567 1253 l 431 1053 l 300 1053 z "},"Þ":{"ha":721,"x_min":69,"x_max":692,"o":"m 269 667 l 269 365 l 358 365 q 456 403 419 365 q 492 514 492 440 q 353 667 492 667 l 269 667 m 69 0 l 69 992 l 269 992 l 269 814 l 419 814 q 626 728 561 814 q 692 517 692 643 q 608 292 692 367 q 376 218 524 218 l 269 218 l 269 0 l 69 0 z "},"ß":{"ha":694,"x_min":57,"x_max":656,"o":"m 249 0 l 57 0 l 57 732 q 128 944 57 878 q 351 1011 200 1011 q 555 951 485 1011 q 625 774 625 890 q 599 647 625 693 q 501 569 572 600 l 501 567 q 656 300 656 542 q 407 -8 656 -8 q 315 -3 343 -8 l 315 128 q 344 122 328 122 q 440 172 415 122 q 464 325 464 221 q 353 493 464 493 l 318 493 l 318 624 l 342 624 q 433 756 433 624 q 342 881 433 881 q 269 842 289 881 q 249 728 249 803 l 249 0 z "},"à":{"ha":668,"x_min":39,"x_max":619,"o":"m 235 518 l 63 518 l 63 536 q 135 712 63 657 q 325 767 207 767 q 540 709 483 767 q 596 538 596 651 l 596 144 q 619 0 596 58 l 436 0 q 413 78 424 22 l 410 78 q 335 1 378 21 q 219 -19 292 -19 q 83 44 128 -19 q 39 194 39 108 q 84 349 39 299 q 239 431 129 400 l 326 454 q 394 488 376 468 q 413 544 413 507 q 324 636 413 636 q 235 539 235 636 l 235 518 m 413 226 l 413 376 q 347 342 386 356 l 306 326 q 239 282 256 308 q 222 215 222 256 q 240 140 222 169 q 294 111 258 111 q 376 140 340 111 q 413 226 413 169 m 428 836 l 297 836 l 161 1036 l 353 1036 l 428 836 z "},"á":{"ha":668,"x_min":39,"x_max":619,"o":"m 235 518 l 63 518 l 63 536 q 135 712 63 657 q 325 767 207 767 q 540 709 483 767 q 596 538 596 651 l 596 144 q 619 0 596 58 l 436 0 q 413 78 424 22 l 410 78 q 335 1 378 21 q 219 -19 292 -19 q 83 44 128 -19 q 39 194 39 108 q 84 349 39 299 q 239 431 129 400 l 326 454 q 394 488 376 468 q 413 544 413 507 q 324 636 413 636 q 235 539 235 636 l 235 518 m 413 226 l 413 376 q 347 342 386 356 l 306 326 q 239 282 256 308 q 222 215 222 256 q 240 140 222 169 q 294 111 258 111 q 376 140 340 111 q 413 226 413 169 m 264 836 l 339 1036 l 531 1036 l 394 836 l 264 836 z "},"â":{"ha":668,"x_min":39,"x_max":619,"o":"m 235 518 l 63 518 l 63 536 q 135 712 63 657 q 325 767 207 767 q 540 709 483 767 q 596 538 596 651 l 596 144 q 619 0 596 58 l 436 0 q 413 78 424 22 l 410 78 q 335 1 378 21 q 219 -19 292 -19 q 83 44 128 -19 q 39 194 39 108 q 84 349 39 299 q 239 431 129 400 l 326 454 q 394 488 376 468 q 413 544 413 507 q 324 636 413 636 q 235 539 235 636 l 235 518 m 413 226 l 413 376 q 347 342 386 356 l 306 326 q 239 282 256 308 q 222 215 222 256 q 240 140 222 169 q 294 111 258 111 q 376 140 340 111 q 413 226 413 169 m 125 836 l 233 1036 l 433 1036 l 542 836 l 394 836 l 331 954 l 264 836 l 125 836 z "},"ã":{"ha":668,"x_min":39,"x_max":619,"o":"m 235 518 l 63 518 l 63 536 q 135 712 63 657 q 325 767 207 767 q 540 709 483 767 q 596 538 596 651 l 596 144 q 619 0 596 58 l 436 0 q 413 78 424 22 l 410 78 q 335 1 378 21 q 219 -19 292 -19 q 83 44 128 -19 q 39 194 39 108 q 84 349 39 299 q 239 431 129 400 l 326 454 q 394 488 376 468 q 413 544 413 507 q 324 636 413 636 q 235 539 235 636 l 235 518 m 413 226 l 413 376 q 347 342 386 356 l 306 326 q 239 282 256 308 q 222 215 222 256 q 240 140 222 169 q 294 111 258 111 q 376 140 340 111 q 413 226 413 169 m 215 849 l 118 849 q 247 1021 142 1021 q 337 997 279 1021 q 415 974 394 974 q 444 990 433 974 q 454 1024 454 1007 l 554 1024 q 513 899 547 947 q 425 851 478 851 q 338 875 394 851 q 260 899 281 899 q 215 849 225 899 z "},"ä":{"ha":668,"x_min":39,"x_max":619,"o":"m 235 518 l 63 518 l 63 536 q 135 712 63 657 q 325 767 207 767 q 540 709 483 767 q 596 538 596 651 l 596 144 q 619 0 596 58 l 436 0 q 413 78 424 22 l 410 78 q 335 1 378 21 q 219 -19 292 -19 q 83 44 128 -19 q 39 194 39 108 q 84 349 39 299 q 239 431 129 400 l 326 454 q 394 488 376 468 q 413 544 413 507 q 324 636 413 636 q 235 539 235 636 l 235 518 m 413 226 l 413 376 q 347 342 386 356 l 306 326 q 239 282 256 308 q 222 215 222 256 q 240 140 222 169 q 294 111 258 111 q 376 140 340 111 q 413 226 413 169 m 376 854 l 376 1018 l 532 1018 l 532 854 l 376 854 m 138 854 l 138 1018 l 293 1018 l 293 854 l 138 854 z "},"å":{"ha":668,"x_min":39,"x_max":619,"o":"m 235 518 l 63 518 l 63 536 q 135 712 63 657 q 325 767 207 767 q 540 709 483 767 q 596 538 596 651 l 596 144 q 619 0 596 58 l 436 0 q 413 78 424 22 l 410 78 q 335 1 378 21 q 219 -19 292 -19 q 83 44 128 -19 q 39 194 39 108 q 84 349 39 299 q 239 431 129 400 l 326 454 q 394 488 376 468 q 413 544 413 507 q 324 636 413 636 q 235 539 235 636 l 235 518 m 413 226 l 413 376 q 347 342 386 356 l 306 326 q 239 282 256 308 q 222 215 222 256 q 240 140 222 169 q 294 111 258 111 q 376 140 340 111 q 413 226 413 169 m 273 1015 q 261 1003 273 1015 q 250 958 250 992 q 273 902 250 925 q 329 879 296 879 q 385 902 363 879 q 408 958 408 925 q 385 1015 408 992 q 329 1038 363 1038 q 273 1015 296 1038 m 172 958 q 218 1068 172 1025 q 329 1111 264 1111 q 440 1068 394 1111 q 486 958 486 1025 q 441 850 486 892 q 329 808 396 808 q 217 849 261 808 q 172 958 172 890 z "},"æ":{"ha":1003,"x_min":38,"x_max":965,"o":"m 233 518 l 61 518 l 61 536 q 133 712 61 657 q 324 767 206 767 q 444 747 400 767 q 517 678 488 728 q 693 767 560 767 q 829 741 775 767 q 913 663 883 715 q 953 544 942 610 q 965 388 965 479 l 965 344 l 589 344 l 589 285 q 611 160 589 210 q 682 111 633 111 q 751 145 728 111 q 782 251 774 179 l 954 251 q 685 -19 943 -19 q 460 110 510 -19 q 367 9 421 38 q 236 -19 314 -19 q 85 44 132 -19 q 38 194 38 107 q 81 349 38 297 q 226 428 124 400 l 335 457 q 394 488 378 468 q 411 544 411 507 q 322 636 411 636 q 233 539 233 636 l 233 518 m 589 458 l 782 458 q 760 595 779 554 q 686 636 740 636 q 612 592 635 636 q 589 488 589 549 l 589 458 m 413 226 l 413 376 q 347 342 386 356 l 306 326 q 239 282 256 308 q 222 215 222 256 q 240 140 222 169 q 294 111 258 111 q 376 140 340 111 q 413 226 413 169 z "},"ç":{"ha":643,"x_min":36,"x_max":607,"o":"m 607 478 l 424 478 q 338 628 424 628 q 249 570 271 628 q 228 372 228 513 q 249 169 228 228 q 331 111 269 111 q 401 153 379 111 q 424 286 424 194 l 607 286 q 540 60 607 139 q 363 -18 485 -7 l 322 -81 q 368 -74 343 -74 q 452 -101 417 -74 q 485 -174 488 -128 q 440 -268 485 -235 q 310 -301 394 -301 q 171 -275 218 -301 l 197 -211 q 293 -232 236 -232 q 342 -219 322 -232 q 363 -186 363 -207 q 301 -142 363 -144 q 254 -150 278 -142 l 224 -122 l 290 -18 q 196 0 242 -17 q 76 119 115 29 q 36 374 36 208 q 115 678 36 590 q 339 767 193 767 q 538 690 469 767 q 607 478 607 614 z "},"è":{"ha":643,"x_min":36,"x_max":607,"o":"m 607 344 l 228 344 l 228 285 q 250 160 228 210 q 322 111 272 111 q 392 144 369 111 q 424 251 415 178 l 596 251 q 325 -19 585 -19 q 222 -6 267 -19 q 147 26 176 7 q 95 80 117 46 q 63 144 74 114 q 45 221 51 175 q 38 299 39 267 q 36 381 36 332 q 42 499 36 447 q 66 603 47 550 q 117 690 85 656 q 203 745 149 724 q 333 767 258 767 q 549 672 490 767 q 607 388 607 576 l 607 344 m 228 458 l 424 458 q 401 594 421 553 q 326 636 382 636 q 251 593 274 636 q 228 488 228 550 l 228 458 m 419 836 l 289 836 l 153 1036 l 344 1036 l 419 836 z "},"é":{"ha":643,"x_min":36,"x_max":607,"o":"m 607 344 l 228 344 l 228 285 q 250 160 228 210 q 322 111 272 111 q 392 144 369 111 q 424 251 415 178 l 596 251 q 325 -19 585 -19 q 222 -6 267 -19 q 147 26 176 7 q 95 80 117 46 q 63 144 74 114 q 45 221 51 175 q 38 299 39 267 q 36 381 36 332 q 42 499 36 447 q 66 603 47 550 q 117 690 85 656 q 203 745 149 724 q 333 767 258 767 q 549 672 490 767 q 607 388 607 576 l 607 344 m 228 458 l 424 458 q 401 594 421 553 q 326 636 382 636 q 251 593 274 636 q 228 488 228 550 l 228 458 m 264 836 l 339 1036 l 531 1036 l 394 836 l 264 836 z "},"ê":{"ha":643,"x_min":36,"x_max":607,"o":"m 607 344 l 228 344 l 228 285 q 250 160 228 210 q 322 111 272 111 q 392 144 369 111 q 424 251 415 178 l 596 251 q 325 -19 585 -19 q 222 -6 267 -19 q 147 26 176 7 q 95 80 117 46 q 63 144 74 114 q 45 221 51 175 q 38 299 39 267 q 36 381 36 332 q 42 499 36 447 q 66 603 47 550 q 117 690 85 656 q 203 745 149 724 q 333 767 258 767 q 549 672 490 767 q 607 388 607 576 l 607 344 m 228 458 l 424 458 q 401 594 421 553 q 326 636 382 636 q 251 593 274 636 q 228 488 228 550 l 228 458 m 125 836 l 233 1036 l 433 1036 l 542 836 l 394 836 l 331 954 l 264 836 l 125 836 z "},"ë":{"ha":643,"x_min":36,"x_max":607,"o":"m 607 344 l 228 344 l 228 285 q 250 160 228 210 q 322 111 272 111 q 392 144 369 111 q 424 251 415 178 l 596 251 q 325 -19 585 -19 q 222 -6 267 -19 q 147 26 176 7 q 95 80 117 46 q 63 144 74 114 q 45 221 51 175 q 38 299 39 267 q 36 381 36 332 q 42 499 36 447 q 66 603 47 550 q 117 690 85 656 q 203 745 149 724 q 333 767 258 767 q 549 672 490 767 q 607 388 607 576 l 607 344 m 228 458 l 424 458 q 401 594 421 553 q 326 636 382 636 q 251 593 274 636 q 228 488 228 550 l 228 458 m 375 854 l 375 1018 l 531 1018 l 531 854 l 375 854 m 136 854 l 136 1018 l 292 1018 l 292 854 l 136 854 z "},"ì":{"ha":333,"x_min":-6,"x_max":263,"o":"m 71 0 l 71 747 l 263 747 l 263 0 l 71 0 m 261 836 l 131 836 l -6 1036 l 186 1036 l 261 836 z "},"í":{"ha":333,"x_min":71,"x_max":338,"o":"m 71 0 l 71 747 l 263 747 l 263 0 l 71 0 m 71 836 l 146 1036 l 338 1036 l 201 836 l 71 836 z "},"î":{"ha":333,"x_min":-40,"x_max":376,"o":"m 71 0 l 71 747 l 263 747 l 263 0 l 71 0 m -40 836 l 68 1036 l 268 1036 l 376 836 l 229 836 l 165 954 l 99 836 l -40 836 z "},"ï":{"ha":333,"x_min":-31,"x_max":364,"o":"m 71 0 l 71 747 l 263 747 l 263 0 l 71 0 m 208 854 l 208 1018 l 364 1018 l 364 854 l 208 854 m -31 854 l -31 1018 l 125 1018 l 125 854 l -31 854 z "},"ð":{"ha":667,"x_min":39,"x_max":628,"o":"m 146 810 l 92 868 l 197 931 q 106 1019 164 964 l 250 1104 q 343 1017 294 1065 l 447 1079 l 507 1021 l 400 958 q 572 694 517 831 q 628 374 628 558 q 560 78 628 175 q 333 -19 492 -19 q 103 73 168 -22 q 39 374 39 168 q 281 739 39 739 q 378 703 335 739 l 381 706 q 253 872 338 775 l 146 810 m 231 364 q 233 260 231 300 q 246 183 236 221 q 277 128 256 146 q 333 111 299 111 q 413 169 390 111 q 436 364 436 226 q 413 552 436 496 q 333 608 390 608 q 277 591 299 608 q 246 537 256 574 q 233 463 236 500 q 231 364 231 425 z "},"ñ":{"ha":694,"x_min":64,"x_max":631,"o":"m 64 0 l 64 747 l 247 747 l 247 660 l 250 660 q 440 767 308 767 q 631 554 631 767 l 631 0 l 439 0 l 439 515 q 419 596 439 572 q 357 619 400 619 q 256 496 256 619 l 256 0 l 64 0 m 217 849 l 119 849 q 249 1021 143 1021 q 338 997 281 1021 q 417 974 396 974 q 445 990 435 974 q 456 1024 456 1007 l 556 1024 q 514 899 549 947 q 426 851 479 851 q 339 875 396 851 q 261 899 282 899 q 217 849 228 899 z "},"ò":{"ha":667,"x_min":39,"x_max":628,"o":"m 39 374 q 107 669 39 572 q 333 767 175 767 q 563 674 499 769 q 628 374 628 579 q 560 78 628 175 q 333 -19 492 -19 q 103 73 168 -22 q 39 374 39 168 m 233 481 q 232 460 233 481 q 231 374 231 440 q 233 267 231 307 q 246 187 236 226 q 277 129 256 147 q 333 111 299 111 q 413 171 390 111 q 436 374 436 231 q 413 576 436 517 q 333 636 390 636 q 277 618 299 636 q 246 560 256 600 q 233 481 236 521 m 415 836 l 285 836 l 149 1036 l 340 1036 l 415 836 z "},"ó":{"ha":667,"x_min":39,"x_max":628,"o":"m 39 374 q 107 669 39 572 q 333 767 175 767 q 563 674 499 769 q 628 374 628 579 q 560 78 628 175 q 333 -19 492 -19 q 103 73 168 -22 q 39 374 39 168 m 233 481 q 232 460 233 481 q 231 374 231 440 q 233 267 231 307 q 246 187 236 226 q 277 129 256 147 q 333 111 299 111 q 413 171 390 111 q 436 374 436 231 q 413 576 436 517 q 333 636 390 636 q 277 618 299 636 q 246 560 256 600 q 233 481 236 521 m 265 836 l 340 1036 l 532 1036 l 396 836 l 265 836 z "},"ô":{"ha":667,"x_min":39,"x_max":628,"o":"m 39 374 q 107 669 39 572 q 333 767 175 767 q 563 674 499 769 q 628 374 628 579 q 560 78 628 175 q 333 -19 492 -19 q 103 73 168 -22 q 39 374 39 168 m 233 481 q 232 460 233 481 q 231 374 231 440 q 233 267 231 307 q 246 187 236 226 q 277 129 256 147 q 333 111 299 111 q 413 171 390 111 q 436 374 436 231 q 413 576 436 517 q 333 636 390 636 q 277 618 299 636 q 246 560 256 600 q 233 481 236 521 m 125 836 l 233 1036 l 433 1036 l 542 836 l 394 836 l 331 954 l 264 836 l 125 836 z "},"õ":{"ha":667,"x_min":39,"x_max":628,"o":"m 39 374 q 107 669 39 572 q 333 767 175 767 q 563 674 499 769 q 628 374 628 579 q 560 78 628 175 q 333 -19 492 -19 q 103 73 168 -22 q 39 374 39 168 m 233 481 q 232 460 233 481 q 231 374 231 440 q 233 267 231 307 q 246 187 236 226 q 277 129 256 147 q 333 111 299 111 q 413 171 390 111 q 436 374 436 231 q 413 576 436 517 q 333 636 390 636 q 277 618 299 636 q 246 560 256 600 q 233 481 236 521 m 213 849 l 115 849 q 244 1021 139 1021 q 334 997 276 1021 q 413 974 392 974 q 441 990 431 974 q 451 1024 451 1007 l 551 1024 q 510 899 544 947 q 422 851 475 851 q 335 875 392 851 q 257 899 278 899 q 213 849 222 899 z "},"ö":{"ha":667,"x_min":39,"x_max":628,"o":"m 39 374 q 107 669 39 572 q 333 767 175 767 q 563 674 499 769 q 628 374 628 579 q 560 78 628 175 q 333 -19 492 -19 q 103 73 168 -22 q 39 374 39 168 m 233 481 q 232 460 233 481 q 231 374 231 440 q 233 267 231 307 q 246 187 236 226 q 277 129 256 147 q 333 111 299 111 q 413 171 390 111 q 436 374 436 231 q 413 576 436 517 q 333 636 390 636 q 277 618 299 636 q 246 560 256 600 q 233 481 236 521 m 375 854 l 375 1018 l 531 1018 l 531 854 l 375 854 m 136 854 l 136 1018 l 292 1018 l 292 854 l 136 854 z "},"÷":{"ha":833,"x_min":65,"x_max":768,"o":"m 321 -39 q 301 -19 321 -39 q 282 57 282 0 q 321 153 282 114 q 417 192 360 192 q 513 153 474 192 q 551 57 551 114 q 513 -39 551 0 q 417 -78 474 -78 q 321 -39 360 -78 m 321 550 q 301 569 321 550 q 282 646 282 589 q 321 742 282 703 q 417 781 360 781 q 513 742 474 781 q 551 646 551 703 q 513 550 551 589 q 417 511 474 511 q 321 550 360 511 m 65 265 l 65 438 l 768 438 l 768 265 l 65 265 z "},"ø":{"ha":667,"x_min":39,"x_max":628,"o":"m 74 -49 l 125 49 q 39 374 39 131 q 107 669 39 572 q 333 767 175 767 q 485 738 426 768 l 532 828 l 593 796 l 542 699 q 628 374 628 617 q 560 78 628 175 q 333 -19 492 -19 q 182 10 239 -22 l 135 -81 l 74 -49 m 431 488 l 258 157 q 333 111 281 111 q 413 171 390 111 q 436 374 436 231 q 433 488 436 424 l 431 488 m 236 258 l 407 589 q 333 636 385 636 q 277 618 299 636 q 246 560 256 600 q 233 481 236 521 q 231 374 231 440 l 231 313 q 233 258 231 292 l 236 258 z "},"ù":{"ha":694,"x_min":64,"x_max":631,"o":"m 447 0 l 447 88 l 444 88 q 254 -19 386 -19 q 64 193 64 -19 l 64 747 l 256 747 l 256 232 q 275 151 256 175 q 338 128 294 128 q 439 251 439 128 l 439 747 l 631 747 l 631 0 l 447 0 m 433 836 l 303 836 l 167 1036 l 358 1036 l 433 836 z "},"ú":{"ha":694,"x_min":64,"x_max":631,"o":"m 447 0 l 447 88 l 444 88 q 254 -19 386 -19 q 64 193 64 -19 l 64 747 l 256 747 l 256 232 q 275 151 256 175 q 338 128 294 128 q 439 251 439 128 l 439 747 l 631 747 l 631 0 l 447 0 m 278 836 l 353 1036 l 544 1036 l 408 836 l 278 836 z "},"û":{"ha":694,"x_min":64,"x_max":631,"o":"m 447 0 l 447 88 l 444 88 q 254 -19 386 -19 q 64 193 64 -19 l 64 747 l 256 747 l 256 232 q 275 151 256 175 q 338 128 294 128 q 439 251 439 128 l 439 747 l 631 747 l 631 0 l 447 0 m 139 836 l 247 1036 l 447 1036 l 556 836 l 408 836 l 344 954 l 278 836 l 139 836 z "},"ü":{"ha":694,"x_min":64,"x_max":631,"o":"m 447 0 l 447 88 l 444 88 q 254 -19 386 -19 q 64 193 64 -19 l 64 747 l 256 747 l 256 232 q 275 151 256 175 q 338 128 294 128 q 439 251 439 128 l 439 747 l 631 747 l 631 0 l 447 0 m 389 854 l 389 1018 l 544 1018 l 544 854 l 389 854 m 150 854 l 150 1018 l 306 1018 l 306 854 l 150 854 z "},"ý":{"ha":617,"x_min":7,"x_max":610,"o":"m 64 -244 l 64 -101 q 114 -106 89 -106 q 217 0 208 -106 l 7 747 l 207 747 l 318 231 l 321 231 l 418 747 l 610 747 l 429 50 q 381 -106 403 -51 q 326 -193 360 -160 q 253 -235 293 -226 q 142 -244 213 -244 l 64 -244 m 247 836 l 322 1036 l 514 1036 l 378 836 l 247 836 z "},"þ":{"ha":694,"x_min":64,"x_max":649,"o":"m 64 -244 l 64 992 l 256 992 l 256 668 l 258 668 q 419 767 304 767 q 593 674 538 767 q 649 374 649 581 q 593 74 649 167 q 419 -19 538 -19 q 258 69 318 -19 l 256 69 l 256 -244 l 64 -244 m 276 562 q 266 533 276 562 q 256 374 256 504 q 276 185 256 243 q 357 128 297 128 q 437 185 417 128 q 457 374 457 243 q 437 562 457 504 q 357 619 417 619 q 276 562 297 619 z "},"ÿ":{"ha":617,"x_min":7,"x_max":610,"o":"m 64 -244 l 64 -101 q 114 -106 89 -106 q 217 0 208 -106 l 7 747 l 207 747 l 318 231 l 321 231 l 418 747 l 610 747 l 429 50 q 381 -106 403 -51 q 326 -193 360 -160 q 253 -235 293 -226 q 142 -244 213 -244 l 64 -244 m 363 854 l 363 1018 l 518 1018 l 518 854 l 363 854 m 124 854 l 124 1018 l 279 1018 l 279 854 l 124 854 z "},"ı":{"ha":333,"x_min":71,"x_max":263,"o":"m 71 0 l 71 747 l 263 747 l 263 0 l 71 0 z "},"Œ":{"ha":1081,"x_min":49,"x_max":1050,"o":"m 274 786 q 261 747 274 786 q 249 496 249 708 q 274 206 249 283 q 386 128 299 128 q 490 199 469 128 q 511 496 511 271 q 510 621 511 575 q 506 715 510 667 q 493 785 501 763 q 471 829 485 808 q 437 857 457 850 q 386 864 417 864 q 274 786 299 864 m 1039 992 l 1039 828 l 703 828 l 703 594 l 1018 594 l 1018 431 l 703 431 l 703 164 l 1050 164 l 1050 0 l 532 0 l 532 57 l 529 57 q 463 1 514 22 q 358 -19 413 -19 q 235 0 288 -19 q 149 60 182 19 q 94 144 115 100 q 64 254 74 188 q 51 375 54 321 q 49 507 49 429 q 55 659 49 593 q 80 794 61 725 q 131 909 99 864 q 218 983 163 954 q 349 1011 274 1011 q 529 939 486 1011 l 532 939 l 532 992 l 1039 992 z "},"œ":{"ha":1029,"x_min":40,"x_max":989,"o":"m 610 458 l 806 458 q 783 594 803 553 q 708 636 764 636 q 633 593 656 636 q 610 488 610 550 l 610 458 m 338 111 q 416 171 394 111 q 438 374 438 231 q 415 576 438 517 q 335 636 392 636 q 278 618 300 636 q 247 560 257 600 q 235 481 238 521 q 232 374 232 440 q 235 267 232 307 q 248 187 238 226 q 281 129 258 147 q 338 111 303 111 m 989 344 l 610 344 l 610 285 q 632 160 610 210 q 704 111 654 111 q 774 145 751 111 q 806 251 797 179 l 978 251 q 718 -19 967 -19 q 524 90 565 -19 q 448 10 504 39 q 318 -19 392 -19 q 101 75 163 -19 q 40 374 40 169 q 108 669 40 572 q 335 767 176 767 q 458 742 411 767 q 533 663 504 717 q 610 740 561 713 q 715 767 658 767 q 931 672 872 767 q 989 388 989 576 l 989 344 z "},"Š":{"ha":721,"x_min":31,"x_max":690,"o":"m 31 310 l 231 310 l 231 281 q 259 166 231 204 q 363 128 288 128 q 447 160 413 128 q 482 250 482 192 q 407 376 482 346 l 258 436 q 95 546 146 481 q 44 719 44 611 q 125 937 44 863 q 351 1011 206 1011 q 576 946 493 1011 q 658 744 658 881 l 658 717 l 467 717 q 358 864 467 864 q 244 749 244 864 q 265 670 244 700 q 347 614 286 640 l 501 547 q 650 440 610 499 q 690 285 690 381 q 346 -19 690 -19 q 106 54 181 -19 q 31 269 31 128 l 31 310 m 257 1053 l 149 1253 l 296 1253 l 360 1135 l 426 1253 l 565 1253 l 457 1053 l 257 1053 z "},"š":{"ha":617,"x_min":32,"x_max":585,"o":"m 32 244 l 204 244 l 204 219 q 230 140 204 169 q 304 111 256 111 q 401 200 401 111 q 332 285 401 258 l 197 333 q 38 542 38 390 q 106 703 38 640 q 313 767 174 767 q 568 554 568 767 l 568 524 l 396 524 q 376 609 396 582 q 311 636 357 636 q 247 615 272 636 q 221 556 221 594 q 304 468 221 494 l 419 429 q 547 349 510 399 q 585 215 585 300 q 508 41 585 101 q 307 -19 432 -19 q 92 41 153 -19 q 32 218 32 101 l 32 244 m 210 836 l 101 1036 l 249 1036 l 313 918 l 379 1036 l 518 1036 l 410 836 l 210 836 z "},"Ÿ":{"ha":722,"x_min":4,"x_max":718,"o":"m 4 992 l 229 992 l 360 608 l 363 608 l 501 992 l 718 992 l 461 390 l 461 0 l 261 0 l 261 390 l 4 992 m 403 1068 l 403 1232 l 558 1232 l 558 1068 l 403 1068 m 164 1068 l 164 1232 l 319 1232 l 319 1068 l 164 1068 z "},"Ž":{"ha":668,"x_min":33,"x_max":635,"o":"m 33 0 l 33 146 l 399 828 l 58 828 l 58 992 l 629 992 l 629 840 l 258 164 l 635 164 l 635 0 l 33 0 m 250 1053 l 142 1253 l 289 1253 l 353 1135 l 419 1253 l 558 1253 l 450 1053 l 250 1053 z "},"ž":{"ha":592,"x_min":33,"x_max":558,"o":"m 33 0 l 33 147 l 332 592 l 47 592 l 47 747 l 558 747 l 558 600 l 260 156 l 558 156 l 558 0 l 33 0 m 204 836 l 96 1036 l 243 1036 l 307 918 l 374 1036 l 513 1036 l 404 836 l 204 836 z "},"ƒ":{"ha":667,"x_min":-49,"x_max":660,"o":"m 89 481 l 111 594 l 257 594 l 281 718 q 369 930 310 868 q 556 992 429 992 q 660 988 628 992 l 633 857 q 594 861 618 861 q 506 829 531 861 q 461 696 482 797 l 440 594 l 593 594 l 572 481 l 418 481 l 328 6 q 246 -184 304 -124 q 51 -244 188 -244 q -49 -235 -19 -244 l -21 -108 q 28 -114 0 -114 q 109 -85 86 -114 q 146 22 132 -56 l 235 481 l 89 481 z "},"ˆ":{"ha":308,"x_min":-54,"x_max":363,"o":"m -54 836 l 54 1036 l 254 1036 l 363 836 l 215 836 l 151 954 l 85 836 l -54 836 z "},"ˇ":{"ha":308,"x_min":-54,"x_max":363,"o":"m 54 836 l -54 1036 l 93 1036 l 157 918 l 224 1036 l 363 1036 l 254 836 l 54 836 z "},"˚":{"ha":308,"x_min":-3,"x_max":311,"o":"m 98 1015 q 86 1003 98 1015 q 75 958 75 992 q 98 902 75 925 q 154 879 121 879 q 210 902 188 879 q 233 958 233 925 q 210 1015 233 992 q 154 1038 188 1038 q 98 1015 121 1038 m -3 958 q 43 1068 -3 1025 q 154 1111 89 1111 q 265 1068 219 1111 q 311 958 311 1025 q 266 850 311 892 q 154 808 221 808 q 42 849 86 808 q -3 958 -3 890 z "},"˜":{"ha":308,"x_min":-64,"x_max":372,"o":"m 33 849 l -64 849 q 65 1021 -40 1021 q 155 997 97 1021 q 233 974 213 974 q 262 990 251 974 q 272 1024 272 1007 l 372 1024 q 331 899 365 947 q 243 851 296 851 q 156 875 213 851 q 78 899 99 899 q 33 849 44 899 z "},"–":{"ha":694,"x_min":0,"x_max":694,"o":"m 0 324 l 0 479 l 694 479 l 694 324 l 0 324 z "},"—":{"ha":1389,"x_min":111,"x_max":1278,"o":"m 111 324 l 111 479 l 1278 479 l 1278 324 l 111 324 z "},"‘":{"ha":361,"x_min":89,"x_max":272,"o":"m 89 546 l 89 726 q 128 915 89 849 q 272 992 168 981 l 272 894 q 219 856 238 888 q 200 785 200 825 l 200 763 l 272 763 l 272 546 l 89 546 z "},"’":{"ha":361,"x_min":89,"x_max":272,"o":"m 272 992 l 272 811 q 233 623 272 689 q 89 546 193 557 l 89 643 q 142 681 124 650 q 161 753 161 713 l 161 775 l 89 775 l 89 992 l 272 992 z "},"‚":{"ha":361,"x_min":89,"x_max":272,"o":"m 89 217 l 272 217 l 272 36 q 233 -152 272 -86 q 89 -229 193 -218 l 89 -132 q 142 -94 124 -125 q 161 -22 161 -62 l 161 0 l 89 0 l 89 217 z "},"“":{"ha":643,"x_min":94,"x_max":549,"o":"m 94 546 l 94 726 q 134 915 94 849 q 278 992 174 981 l 278 894 q 224 856 243 888 q 206 785 206 825 l 206 763 l 278 763 l 278 546 l 94 546 m 365 546 l 365 726 q 405 915 365 849 q 549 992 444 981 l 549 894 q 495 856 514 888 q 476 785 476 825 l 476 763 l 549 763 l 549 546 l 365 546 z "},"”":{"ha":643,"x_min":94,"x_max":549,"o":"m 365 775 l 365 992 l 549 992 l 549 811 q 509 623 549 689 q 365 546 469 557 l 365 643 q 419 681 400 650 q 438 753 438 713 l 438 775 l 365 775 m 94 775 l 94 992 l 278 992 l 278 811 q 238 623 278 689 q 94 546 199 557 l 94 643 q 148 681 129 650 q 167 753 167 713 l 167 775 l 94 775 z "},"„":{"ha":643,"x_min":94,"x_max":549,"o":"m 94 0 l 94 217 l 278 217 l 278 36 q 238 -152 278 -86 q 94 -229 199 -218 l 94 -132 q 148 -94 129 -125 q 167 -22 167 -62 l 167 0 l 94 0 m 365 0 l 365 217 l 549 217 l 549 36 q 509 -152 549 -86 q 365 -229 469 -218 l 365 -132 q 419 -94 400 -125 q 438 -22 438 -62 l 438 0 l 365 0 z "},"†":{"ha":667,"x_min":4,"x_max":663,"o":"m 238 717 l 238 992 l 429 992 l 429 717 l 663 717 l 663 561 l 429 561 l 429 -192 l 238 -192 l 238 561 l 4 561 l 4 717 l 238 717 z "},"‡":{"ha":667,"x_min":4,"x_max":663,"o":"m 238 -192 l 238 72 l 4 72 l 4 228 l 238 228 l 238 572 l 4 572 l 4 728 l 238 728 l 238 992 l 429 992 l 429 728 l 663 728 l 663 572 l 429 572 l 429 228 l 663 228 l 663 72 l 429 72 l 429 -192 l 238 -192 z "},"•":{"ha":694,"x_min":100,"x_max":594,"o":"m 172 321 q 136 357 172 321 q 100 496 100 393 q 172 671 100 599 q 347 743 244 743 q 522 671 450 743 q 594 496 594 599 q 522 321 594 393 q 347 249 450 249 q 172 321 244 249 z "},"…":{"ha":1389,"x_min":140,"x_max":1249,"o":"m 1065 217 l 1249 217 l 1249 0 l 1065 0 l 1065 217 m 603 217 l 786 217 l 786 0 l 603 0 l 603 217 m 140 217 l 324 217 l 324 0 l 140 0 l 140 217 z "},"‰":{"ha":1518,"x_min":38,"x_max":1481,"o":"m 178 -43 l 742 1007 l 865 1007 l 301 -43 l 178 -43 m 742 251 q 753 123 742 160 q 803 86 764 86 q 853 123 842 86 q 864 251 864 160 q 853 371 864 336 q 803 406 842 406 q 753 371 764 406 q 742 251 742 336 m 637 42 q 616 72 637 42 q 594 246 594 103 q 637 450 594 389 q 803 511 679 511 q 969 450 926 511 q 1011 246 1011 389 q 969 42 1011 103 q 803 -19 926 -19 q 637 42 679 -19 m 185 724 q 196 595 185 632 q 246 558 207 558 q 296 595 285 558 q 307 724 307 632 q 296 843 307 808 q 246 878 285 878 q 196 843 207 878 q 185 724 185 808 m 80 514 q 59 544 80 514 q 38 718 38 575 q 80 922 38 861 q 246 983 122 983 q 412 922 369 983 q 454 718 454 861 q 412 514 454 575 q 246 453 369 453 q 80 514 122 453 m 1106 42 q 1085 72 1106 42 q 1064 246 1064 103 q 1106 450 1064 389 q 1272 511 1149 511 q 1438 450 1396 511 q 1481 246 1481 389 q 1438 42 1481 103 q 1272 -19 1396 -19 q 1106 42 1149 -19 m 1211 251 q 1222 123 1211 160 q 1272 86 1233 86 q 1322 123 1311 86 q 1333 251 1333 160 q 1322 371 1333 336 q 1272 406 1311 406 q 1222 371 1233 406 q 1211 251 1211 336 z "},"‹":{"ha":335,"x_min":64,"x_max":271,"o":"m 64 289 l 64 514 l 271 681 l 271 497 l 161 401 l 271 306 l 271 122 l 64 289 z "},"›":{"ha":335,"x_min":64,"x_max":271,"o":"m 64 122 l 64 306 l 174 401 l 64 497 l 64 681 l 271 514 l 271 289 l 64 122 z "},"€":{"ha":667,"x_min":36,"x_max":665,"o":"m 665 918 l 601 779 q 464 850 535 850 q 356 782 385 850 q 332 646 339 744 l 565 646 l 525 538 l 328 538 l 328 467 l 511 467 l 471 358 l 331 358 q 349 208 335 247 q 454 124 375 124 q 633 217 528 124 l 633 43 q 424 -19 528 -19 q 132 358 143 -19 l 36 358 l 76 467 l 129 467 l 131 538 l 36 538 l 78 646 l 135 646 q 451 988 164 988 q 665 918 575 988 z "},"™":{"ha":1375,"x_min":43,"x_max":1317,"o":"m 199 417 l 199 861 l 43 861 l 43 992 l 510 992 l 510 861 l 354 861 l 354 417 l 199 417 m 1169 417 l 1169 811 l 1167 811 l 1035 417 l 896 417 l 764 811 l 761 811 l 761 417 l 614 417 l 614 992 l 849 992 l 964 644 l 967 644 l 1082 992 l 1317 992 l 1317 417 l 1169 417 z "}}}
